<svg width="29" height="28" viewBox="0 0 29 28" fill="none" xmlns="http://www.w3.org/2000/svg">
<path d="M15.3422 1.44726C15.3422 1.17112 15.566 0.947266 15.8422 0.947266C16.0563 0.947266 16.2705 0.947266 16.4846 0.947266C16.7608 0.947266 16.9846 1.17112 16.9846 1.44726C16.9846 1.90659 16.9846 2.36764 16.9846 2.83513C16.9846 3.11127 17.2085 3.33514 17.4846 3.33514C18.2659 3.33514 19.0372 3.33514 19.8206 3.33514C20.0968 3.33514 20.3206 3.559 20.3206 3.83514C20.3206 4.56248 20.3206 5.28276 20.3206 6.0131C20.3206 6.28925 20.5445 6.5131 20.8206 6.5131C21.0399 6.5131 21.2563 6.5131 21.4733 6.5131C21.7494 6.5131 21.9733 6.73698 21.9733 7.01312C21.9733 9.8565 21.9733 12.6788 21.9733 15.5244C21.9733 15.8006 22.1972 16.0244 22.4733 16.0244C23.7938 16.0244 25.1033 16.0244 26.4262 16.0244C26.7023 16.0244 26.9262 16.2483 26.9262 16.5245C26.9262 19.6701 26.9262 22.7913 26.9262 25.9266C26.9262 26.2028 27.15 26.4266 27.4262 26.4266C27.6685 26.4266 27.9076 26.4266 28.1453 26.4266C28.4214 26.4266 28.6453 26.6505 28.6453 26.9266C28.6453 27.1043 28.6453 27.2819 28.6453 27.4596C28.6453 27.7357 28.4214 27.9596 28.1453 27.9596C19.1532 27.9596 10.1611 27.9596 1.16895 27.9596C0.892803 27.9596 0.668945 27.7357 0.668945 27.4596C0.668945 27.2819 0.668945 27.1043 0.668945 26.9266C0.668945 26.6505 0.892799 26.4266 1.16894 26.4266C1.42651 26.4266 1.68593 26.4266 1.95007 26.4266C2.22622 26.4266 2.45009 26.2028 2.45009 25.9266C2.45009 20.6721 2.45009 15.4324 2.45009 10.1636C2.45009 9.88744 2.67395 9.66358 2.95009 9.66358C5.2565 9.66358 7.54012 9.66358 9.84039 9.66358C10.1165 9.66358 10.3404 9.43972 10.3404 9.16358C10.3404 8.43456 10.3404 7.7173 10.3404 6.99196C10.3404 6.71582 10.5643 6.49196 10.8404 6.49196C11.0602 6.49196 11.279 6.49196 11.5003 6.49196C11.7765 6.49196 12.0004 6.2681 12.0004 5.99196C12.0004 5.26354 12.0004 4.54427 12.0004 3.81752C12.0004 3.54138 12.2242 3.31752 12.5004 3.31752C13.285 3.31752 14.0572 3.31752 14.8419 3.31752C15.1179 3.31752 15.3417 3.09393 15.3418 2.81796C15.3421 2.35596 15.3422 1.9007 15.3422 1.44726ZM12.4974 8.08057C12.2213 8.0806 11.9974 8.30446 11.9974 8.5806C11.9974 14.3776 11.9974 20.1426 11.9974 25.9062C11.9974 26.1823 12.2213 26.4062 12.4974 26.4062C13.2888 26.4062 14.0727 26.4062 14.8648 26.4062C15.1409 26.4062 15.3648 26.1823 15.3648 25.9062C15.3648 22.7724 15.3648 19.6523 15.3648 16.5111C15.3648 16.2349 15.5887 16.011 15.8648 16.011C17.1852 16.011 18.4929 16.011 19.8016 16.011C20.0778 16.011 20.3016 15.7872 20.3016 15.511C20.3016 13.1919 20.3016 10.892 20.3016 8.57284C20.3016 8.29669 20.0778 8.07283 19.8016 8.07283C19.5879 8.07283 19.375 8.07283 19.1607 8.07283C18.8845 8.07283 18.6607 7.84898 18.6607 7.57283C18.6607 6.85187 18.6607 6.14161 18.6607 5.43152C18.6607 5.15538 18.4368 4.93152 18.1606 4.93152C16.8109 4.93152 15.4736 4.93152 14.1238 4.93152C13.8477 4.93152 13.6238 5.15538 13.6238 5.43153C13.6238 6.1495 13.6238 6.86155 13.6238 7.58052C13.6238 7.85641 13.4004 8.08018 13.1245 8.08035C12.9152 8.08048 12.7072 8.08054 12.4974 8.08057ZM4.6159 11.2663C4.33976 11.2663 4.11589 11.4902 4.11589 11.7663C4.11589 16.4934 4.11589 21.201 4.11589 25.9097C4.11589 26.1859 4.33976 26.4097 4.61591 26.4097C6.35688 26.4097 8.08337 26.4097 9.81046 26.4097C10.0866 26.4097 10.3105 26.1859 10.3105 25.9097C10.3105 21.1893 10.3105 16.4818 10.3105 11.7663C10.3105 11.4902 10.0866 11.2663 9.81045 11.2663C8.07551 11.2663 6.3529 11.2663 4.6159 11.2663ZM24.7516 26.4175C25.0277 26.4175 25.2516 26.1936 25.2516 25.9175C25.2516 23.3049 25.2516 20.7095 25.2516 18.1152C25.2516 17.839 25.0277 17.6152 24.7516 17.6152C22.3313 17.6152 19.9281 17.6152 17.5197 17.6152C17.2435 17.6152 17.0197 17.839 17.0197 18.1152C17.0197 20.7219 17.0197 23.3171 17.0197 25.9111C17.0197 26.1873 17.2435 26.4111 17.5197 26.4111C17.7385 26.4111 17.9566 26.4111 18.1774 26.4111C18.4536 26.4111 18.6774 26.1873 18.6774 25.9111C18.6774 23.9039 18.6774 21.9075 18.6774 19.9096C18.6774 19.6335 18.9013 19.4096 19.1775 19.4096C19.3918 19.4096 19.6041 19.4096 19.8184 19.4096C20.0946 19.4096 20.3184 19.6335 20.3184 19.9096C20.3184 21.9162 20.3184 23.9128 20.3184 25.909C20.3184 26.1852 20.5423 26.409 20.8184 26.409C21.0403 26.409 21.2599 26.409 21.4813 26.409C21.7575 26.409 21.9813 26.1852 21.9813 25.909C21.9813 23.9002 21.9813 21.9032 21.9813 19.9089C21.9813 19.6328 22.2052 19.4089 22.4813 19.4089C22.6944 19.4089 22.9057 19.4089 23.1186 19.4089C23.3948 19.4089 23.6187 19.6328 23.6187 19.9089C23.6187 21.9167 23.6187 23.9144 23.6187 25.9175C23.6187 26.1936 23.8425 26.4175 24.1187 26.4175C24.3309 26.4175 24.5408 26.4175 24.7516 26.4175Z" fill="white"/>
<path d="M16.9565 7.57145C16.9565 7.84759 16.7327 8.07146 16.4565 8.07146C16.2518 8.07146 16.0485 8.07146 15.8447 8.07146C15.5686 8.07146 15.3447 7.8476 15.3447 7.57145C15.3447 7.38715 15.3447 7.2032 15.3447 7.01807C15.3447 6.74193 15.5686 6.51807 15.8447 6.51807C16.0476 6.51807 16.2512 6.51807 16.4565 6.51807C16.7326 6.51807 16.9565 6.74192 16.9565 7.01806C16.9565 7.20154 16.9565 7.3855 16.9565 7.57145Z" fill="white"/>
<path d="M14.1997 11.2403C13.9236 11.2403 13.6997 11.0164 13.6997 10.7403C13.6997 10.5556 13.6997 10.3717 13.6997 10.1869C13.6997 9.91075 13.9236 9.68689 14.1997 9.68689C14.4022 9.68689 14.6045 9.68689 14.8086 9.68689C15.0847 9.68689 15.3086 9.91074 15.3086 10.1869C15.3086 10.3702 15.3086 10.5544 15.3086 10.7403C15.3086 11.0164 15.0847 11.2403 14.8086 11.2403C14.6074 11.2403 14.4051 11.2403 14.1997 11.2403Z" fill="white"/>
<path d="M16.9937 10.1777C16.9937 9.90159 17.2175 9.67773 17.4937 9.67773C17.6943 9.67773 17.8935 9.67773 18.0937 9.67773C18.3699 9.67773 18.5937 9.90159 18.5937 10.1777C18.5937 10.3648 18.5937 10.552 18.5937 10.7403C18.5937 11.0164 18.3699 11.2403 18.0937 11.2403C17.8946 11.2403 17.695 11.2403 17.4937 11.2403C17.2175 11.2403 16.9937 11.0164 16.9937 10.7403C16.9937 10.5542 16.9937 10.3671 16.9937 10.1777Z" fill="white"/>
<path d="M14.2002 14.4126C13.9241 14.4126 13.7002 14.1887 13.7002 13.9126C13.7002 13.7272 13.7002 13.5428 13.7002 13.3578C13.7002 13.0816 13.9241 12.8578 14.2002 12.8578C14.4028 12.8578 14.6051 12.8578 14.8091 12.8578C15.0852 12.8578 15.3091 13.0816 15.3091 13.3578C15.3091 13.5417 15.3091 13.7264 15.3091 13.9126C15.3091 14.1887 15.0852 14.4126 14.8091 14.4126C14.6076 14.4126 14.4052 14.4126 14.2002 14.4126Z" fill="white"/>
<path d="M18.5947 13.9133C18.5947 14.1894 18.3709 14.4133 18.0947 14.4133C17.8949 14.4133 17.6948 14.4133 17.4932 14.4133C17.217 14.4133 16.9932 14.1894 16.9932 13.9133C16.9932 13.7288 16.9932 13.5439 16.9932 13.3578C16.9932 13.0817 17.217 12.8578 17.4932 12.8578C17.6928 12.8578 17.8929 12.8578 18.0947 12.8578C18.3709 12.8578 18.5947 13.0816 18.5947 13.3578C18.5947 13.5421 18.5947 13.727 18.5947 13.9133Z" fill="white"/>
<path d="M6.37695 13.3556C6.37695 13.0795 6.60081 12.8556 6.87695 12.8556C7.07819 12.8556 7.27933 12.8556 7.48216 12.8556C7.7583 12.8556 7.98217 13.0794 7.98217 13.3556C7.98217 13.5391 7.98217 13.7236 7.98217 13.9097C7.98217 14.1858 7.75831 14.4097 7.48217 14.4097C7.28178 14.4097 7.08028 14.4097 6.87696 14.4097C6.60082 14.4097 6.37695 14.1858 6.37695 13.9097C6.37695 13.7255 6.37695 13.5411 6.37695 13.3556Z" fill="white"/>
<path d="M7.49458 16.2485C7.77072 16.2485 7.99458 16.4724 7.99458 16.7485C7.99458 16.9325 7.99458 17.115 7.99458 17.2984C7.99458 17.5745 7.77073 17.7984 7.49458 17.7984C7.28989 17.7984 7.08495 17.7984 6.87842 17.7984C6.60228 17.7984 6.37842 17.5745 6.37842 17.2984C6.37842 17.1161 6.37842 16.9329 6.37842 16.7485C6.37842 16.4724 6.60228 16.2485 6.87842 16.2485C7.08312 16.2485 7.28769 16.2485 7.49458 16.2485Z" fill="white"/>
<path d="M7.98437 24.1062C7.98437 24.3823 7.76051 24.6062 7.48437 24.6062C7.28319 24.6062 7.08223 24.6062 6.87989 24.6062C6.60374 24.6062 6.37988 24.3823 6.37988 24.1062C6.37988 23.9204 6.37988 23.7346 6.37988 23.5479C6.37988 23.2717 6.60374 23.0479 6.87988 23.0479C7.08096 23.0479 7.28191 23.0479 7.48437 23.0479C7.76051 23.0479 7.98437 23.2717 7.98437 23.5479C7.98437 23.7334 7.98437 23.9192 7.98437 24.1062Z" fill="white"/>
<path d="M7.9868 20.709C7.9868 20.9851 7.76294 21.209 7.48679 21.209C7.28337 21.209 7.08104 21.209 6.87793 21.209C6.60179 21.209 6.37793 20.9851 6.37793 20.709C6.37793 20.5256 6.37793 20.3424 6.37793 20.1577C6.37793 19.8816 6.60179 19.6577 6.87793 19.6577C7.07989 19.6577 7.2825 19.6577 7.48679 19.6577C7.76293 19.6577 7.9868 19.8816 7.9868 20.1577C7.9868 20.34 7.9868 20.5233 7.9868 20.709Z" fill="white"/>
</svg>
