<svg xmlns="http://www.w3.org/2000/svg" fill="none" viewBox="0 0 29 28">
    <path fill="#000" d="M15.3423.50586c0-.27614.2239-.5.5-.5h.6425c.2761 0 .5.22385.5.5v1.38786c0 .27614.2238.50002.5.50002h2.3359c.2762 0 .5.22385.5.5V5.0717c0 .27614.2239.5.5001.5h.6526c.2761 0 .5.22387.5.50001V14.583c0 .2762.2239.5.5.5h3.9529c.2761 0 .5.2239.5.5v9.4022c0 .2762.2239.5.5.5h.7191c.2761 0 .5.2239.5.5v.533c0 .2761-.2239.5-.5.5H1.16907c-.27615 0-.5-.2239-.5-.5v-.533c0-.2761.22385-.5.49999-.5h.78114c.27614 0 .50001-.2238.50001-.5V9.22218c0-.27615.22386-.50001.5-.50001h6.8903c.27619 0 .49999-.22386.49999-.5V6.05055c0-.27614.2239-.5.5-.5h.66c.2761 0 .5-.22386.5-.5V2.87612c0-.27615.2239-.5.5-.5h2.3415c.276 0 .4998-.2236.4999-.49957.0003-.462.0004-.91725.0004-1.3707Zm-2.8447 6.6333c-.2762.00003-.5.22389-.5.50003V24.9648c0 .2761.2238.5.5.5h2.3673c.2762 0 .5-.2239.5-.5v-9.3951c0-.2762.2239-.5001.5-.5001h3.9369c.2761 0 .5-.2238.5-.5V7.63143c0-.27614-.2239-.5-.5-.5h-.641c-.2762 0-.5-.22386-.5-.5V4.49012c0-.27615-.2239-.5-.5-.5H14.124c-.2762 0-.5001.22386-.5001.5v2.149c0 .27589-.2234.49965-.4993.49983-.2093.00013-.4173.00019-.627.00021ZM4.61603 10.3249c-.27615 0-.50002.2239-.50002.5v14.1434c0 .2762.22387.5.50002.5h5.19456c.27611 0 .50001-.2238.50001-.5V10.8249c0-.2761-.2239-.5-.50003-.5H4.61603ZM24.7517 25.4761c.2762 0 .5-.2239.5-.5v-7.8023c0-.2762-.2238-.5-.5-.5h-7.2319c-.2761 0-.5.2238-.5.5v7.7959c0 .2762.2239.5.5.5h.6578c.2761 0 .5-.2238.5-.5v-6.0015c0-.2761.2238-.5.5-.5h.6409c.2762 0 .5001.2239.5001.5v5.9994c0 .2762.2238.5.5.5h.6628c.2762 0 .5-.2239.5-.5v-6.0001c0-.2761.2239-.5.5-.5h.6374c.2761 0 .5.2239.5.5v6.0086c0 .2761.2238.5.5.5h.6329Z"/>
    <path fill="#000" d="M16.9568 6.63004c0 .27615-.2239.50001-.5.50001h-.6118c-.2762 0-.5-.22386-.5-.5v-.55339c0-.27614.2238-.5.5-.5h.6118c.2761 0 .5.22386.5.5v.55338Zm-2.7572 3.66866c-.2761 0-.5-.2238-.5-.49996v-.55338c0-.27614.2238-.5.5-.5h.6088c.2762 0 .5.22385.5.5v.55338c0 .27616-.2238.49996-.4999.49996h-.6089Zm2.7944-1.06237c0-.27614.2239-.5.5-.5h.6001c.2762 0 .5.22386.5.5v.56254c0 .27613-.2238.50003-.5.50003h-.6001c-.2761 0-.5-.2239-.5-.50002v-.56255Zm-2.7937 4.23477c-.2761 0-.5-.2239-.5-.5v-.5548c0-.2762.2239-.5.5-.5h.6089c.2761 0 .5.2238.5.5v.5548c0 .2761-.2239.5-.5.5h-.6089Zm4.3946-.4993c0 .2761-.2239.5-.5.5h-.6016c-.2762 0-.5-.2239-.5-.5v-.5555c0-.2762.2238-.5.5-.5h.6016c.2761 0 .5.2238.5.5v.5555Zm-12.2177-.5575c0-.2761.22385-.5.5-.5h.60521c.27614 0 .5.2239.5.5v.5541c0 .2761-.22386.5-.5.5H6.8772c-.27614 0-.5-.2239-.5-.5v-.5541Zm1.11774 2.8928c.27615 0 .50001.2239.50001.5v.5499c0 .2761-.22386.5-.5.5h-.61616c-.27614 0-.50001-.2239-.50001-.5v-.5499c0-.2761.22386-.5.5-.5h.61616Zm.48967 7.8577c0 .2761-.22385.5-.5.5h-.60448c-.27614 0-.5-.2239-.5-.5v-.5584c0-.2761.22385-.5.5-.5h.60448c.27614 0 .5.2239.5.5v.5584Zm.00219-3.3972c0 .2761-.22386.5-.50001.5h-.60886c-.27614 0-.5-.2239-.5-.5v-.5513c0-.2761.22386-.5.5-.5h.60886c.27614 0 .50001.2239.50001.5v.5513Z"/>
</svg>
