<svg width="27" height="29" viewBox="0 0 27 29" fill="none" xmlns="http://www.w3.org/2000/svg">
<path d="M26.5525 7.42819C26.5525 6.58383 26.1397 6.17108 25.2963 6.17108C22.9795 6.17018 20.6626 6.17108 18.3458 6.17108C18.2256 6.17108 18.1062 6.17108 17.9555 6.17108C17.9555 5.14188 17.9555 4.14678 17.9555 3.15168C17.9546 2.26336 17.5544 1.86406 16.6616 1.86406C12.229 1.86406 7.79722 1.86406 3.36459 1.86406C3.23089 1.86406 3.0972 1.86406 2.93837 1.86406C2.74007 1.00176 2.14427 0.603363 1.46322 0.8564C0.994834 1.02958 0.761537 1.4199 0.761537 2.03545C0.761537 10.426 0.761537 18.8167 0.761537 27.2073C0.761537 27.2602 0.761537 27.3122 0.761537 27.3652C0.761537 27.4432 0.758845 27.5222 0.764229 27.6003C0.801018 28.1234 1.21288 28.5532 1.72703 28.6061C2.2322 28.6582 2.71226 28.3441 2.85403 27.8452C2.90158 27.6765 2.90876 27.4917 2.90876 27.3149C2.90876 27.2961 2.90876 27.2763 2.90876 27.2575H2.90966C2.91056 23.9581 2.91146 20.6588 2.91146 17.3603C2.91146 17.2293 2.91146 17.0983 2.91146 16.961C5.79446 16.961 8.64068 16.961 11.5084 16.961C11.5084 17.9795 11.5075 18.9764 11.5084 19.9724C11.5093 20.8391 11.9149 21.2456 12.7826 21.2456C16.946 21.2456 21.1095 21.2456 25.2738 21.2456C26.1478 21.2456 26.5534 20.8445 26.5534 19.9777C26.5534 15.7937 26.5534 11.6114 26.5525 7.42819ZM2.93478 14.7573C2.93478 11.1986 2.93478 7.62918 2.93478 4.03103C7.22834 4.03103 11.4986 4.03103 15.7876 4.03103C15.7876 7.60675 15.7876 11.1681 15.7876 14.7573C11.5165 14.7573 7.23821 14.7573 2.93478 14.7573ZM24.3819 19.0724C20.8161 19.0724 17.2538 19.0724 13.6655 19.0724C13.6655 18.3545 13.6655 17.6717 13.6655 16.9386C13.7786 16.9386 13.8854 16.9386 13.9921 16.9386C14.8876 16.9386 15.7822 16.9386 16.6777 16.9386C17.5517 16.9377 17.9573 16.5375 17.9573 15.6707C17.9582 13.3611 17.9573 11.0524 17.9573 8.74272C17.9573 8.61979 17.9573 8.49776 17.9573 8.34971C20.1018 8.34971 22.2311 8.34971 24.3828 8.34971C24.3819 11.9147 24.3819 15.4832 24.3819 19.0724Z" fill="black"/>
</svg>
