<svg width="27" height="28" viewBox="0 0 27 28" fill="none" xmlns="http://www.w3.org/2000/svg">
<path d="M26.5524 6.81539C26.5524 5.97104 26.1396 5.55828 25.2961 5.55828C22.9793 5.55739 20.6625 5.55828 18.3457 5.55828C18.2255 5.55828 18.1061 5.55828 17.9554 5.55828C17.9554 4.52909 17.9554 3.53399 17.9554 2.53889C17.9545 1.65057 17.5543 1.25127 16.6615 1.25127C12.2288 1.25127 7.7971 1.25127 3.36447 1.25127C3.23077 1.25127 3.09707 1.25127 2.93825 1.25127C2.73995 0.388969 2.14415 -0.00942981 1.4631 0.243607C0.994712 0.416785 0.761415 0.807108 0.761415 1.42265C0.761415 9.81325 0.761415 18.2039 0.761415 26.5945C0.761415 26.6474 0.761415 26.6994 0.761415 26.7524C0.761415 26.8304 0.758723 26.9094 0.764107 26.9875C0.800896 27.5106 1.21275 27.9404 1.7269 27.9933C2.23208 28.0454 2.71213 27.7313 2.85391 27.2324C2.90146 27.0637 2.90864 26.8789 2.90864 26.7021C2.90864 26.6833 2.90864 26.6635 2.90864 26.6447H2.90954C2.91044 23.3454 2.91133 20.046 2.91133 16.7475C2.91133 16.6165 2.91133 16.4855 2.91133 16.3483C5.79434 16.3483 8.64056 16.3483 11.5083 16.3483C11.5083 17.3667 11.5074 18.3636 11.5083 19.3596C11.5092 20.2264 11.9148 20.6328 12.7825 20.6328C16.9459 20.6328 21.1094 20.6328 25.2737 20.6328C26.1477 20.6328 26.5533 20.2317 26.5533 19.365C26.5533 15.1809 26.5533 10.9986 26.5524 6.81539ZM2.93466 14.1445C2.93466 10.5858 2.93466 7.01639 2.93466 3.41824C7.22822 3.41824 11.4984 3.41824 15.7875 3.41824C15.7875 6.99395 15.7875 10.5553 15.7875 14.1445C11.5164 14.1445 7.23809 14.1445 2.93466 14.1445ZM24.3818 18.4596C20.816 18.4596 17.2537 18.4596 13.6654 18.4596C13.6654 17.7417 13.6654 17.0589 13.6654 16.3258C13.7785 16.3258 13.8852 16.3258 13.992 16.3258C14.8875 16.3258 15.7821 16.3258 16.6776 16.3258C17.5516 16.3249 17.9572 15.9247 17.9572 15.0579C17.9581 12.7483 17.9572 10.4396 17.9572 8.12993C17.9572 8.007 17.9572 7.88497 17.9572 7.73691C20.1017 7.73691 22.231 7.73691 24.3827 7.73691C24.3818 11.3019 24.3818 14.8704 24.3818 18.4596Z" fill="white"/>
</svg>
