<svg width="27" height="29" viewBox="0 0 27 29" fill="none" xmlns="http://www.w3.org/2000/svg">
<path d="M1.19709 28.3681C1.0749 28.238 0.898265 28.1271 0.84182 27.973C0.716978 27.6284 0.979944 27.3216 1.38103 27.3109C1.76685 27.3003 2.15267 27.309 2.56505 27.309C2.56505 27.1834 2.56505 27.0885 2.56505 26.9935C2.56505 25.5798 2.59493 24.1653 2.55509 22.7529C2.52454 21.6618 3.28887 21.0482 4.20328 21.0947C4.9437 21.1326 5.68744 21.1013 6.4292 21.1027C7.42993 21.1047 8.005 21.6751 8.00899 22.6818C8.01364 24.1042 8.01032 25.5266 8.01032 26.9497C8.01032 27.0553 8.01032 27.1609 8.01032 27.2877C8.99179 27.2877 9.95733 27.2877 10.9587 27.2877C10.9587 27.1894 10.9587 27.0872 10.9587 26.9849C10.9587 24.0604 10.9574 21.1359 10.9594 18.2114C10.9601 17.4112 11.3784 16.8481 12.089 16.69C12.2337 16.6575 12.3865 16.6528 12.5359 16.6522C13.2955 16.6488 14.0559 16.6495 14.8156 16.6508C15.8356 16.6522 16.4133 17.2253 16.4133 18.2399C16.414 21.1472 16.4133 24.0537 16.4133 26.961C16.4133 27.0659 16.4133 27.1702 16.4133 27.2924C17.3974 27.2924 18.3643 27.2924 19.3703 27.2924C19.3703 27.1821 19.3703 27.0712 19.3703 26.9597C19.3703 21.5084 19.373 16.0565 19.3664 10.6053C19.3657 9.95449 19.5775 9.43719 20.1792 9.1543C20.401 9.05004 20.6719 9.01618 20.9216 9.01086C21.6985 8.99294 22.4768 9.00157 23.2537 9.00489C24.2399 9.00954 24.809 9.57996 24.8123 10.5741C24.8169 11.855 24.8136 13.1367 24.8136 14.4176C24.8136 18.5965 24.8136 22.7761 24.8136 26.955C24.8136 27.0679 24.8136 27.1801 24.8136 27.3103C25.1649 27.3103 25.4817 27.3096 25.7991 27.3103C26.1875 27.3109 26.4093 27.4351 26.4797 27.6901C26.5568 27.967 26.4545 28.157 26.1152 28.3708C17.8105 28.3681 9.50378 28.3681 1.19709 28.3681ZM20.4315 27.2943C21.5571 27.2943 22.6402 27.2943 23.7365 27.2943C23.7425 27.214 23.7531 27.1456 23.7531 27.0772C23.7538 21.5735 23.7544 16.0698 23.7531 10.5661C23.7531 10.1623 23.6515 10.0641 23.2484 10.0627C22.5067 10.0607 21.7643 10.0621 21.0225 10.0621C20.4972 10.0621 20.4328 10.1285 20.4328 10.6637C20.4328 16.1056 20.4328 21.5476 20.4328 26.9895C20.4315 27.0852 20.4315 27.1808 20.4315 27.2943ZM15.3415 27.2937C15.3468 27.2392 15.3521 27.2047 15.3521 27.1708C15.3528 24.1693 15.3535 21.1671 15.3515 18.1656C15.3515 17.8382 15.2147 17.7113 14.8747 17.7107C14.1243 17.708 13.3739 17.71 12.6235 17.71C12.1142 17.71 12.0192 17.8043 12.0192 18.3083C12.0192 21.2043 12.0192 24.1002 12.0192 26.9955C12.0192 27.0905 12.0192 27.1848 12.0192 27.2937C13.1368 27.2937 14.2279 27.2937 15.3415 27.2937ZM3.62555 27.287C4.75444 27.287 5.8435 27.287 6.9279 27.287C6.93654 27.2492 6.9445 27.2319 6.9445 27.2147C6.9465 25.678 6.94982 24.1414 6.94583 22.6048C6.94517 22.2827 6.81302 22.1645 6.48498 22.1632C5.69873 22.1605 4.91315 22.1612 4.12691 22.1625C3.73777 22.1632 3.62621 22.2754 3.62555 22.6685C3.62422 23.8339 3.62488 25 3.62488 26.1655C3.62555 26.5353 3.62555 26.9045 3.62555 27.287Z" fill="white" stroke="white" stroke-width="0.5"/>
<path d="M17.7234 7.48552C19.4645 5.74437 21.1911 4.01782 22.9276 2.28131C22.3758 2.28131 21.8153 2.28131 21.2542 2.28131C20.7561 2.28131 20.4925 2.09139 20.4998 1.74077C20.5071 1.39878 20.7628 1.22081 21.2475 1.22081C22.2104 1.22081 23.1733 1.21882 24.1362 1.22147C24.6116 1.2228 24.8075 1.4021 24.8115 1.86893C24.8195 2.82318 24.8089 3.77743 24.8162 4.73102C24.8208 5.27953 24.3454 5.44886 24.0432 5.28617C23.8088 5.16 23.755 4.94418 23.7543 4.70379C23.753 4.26219 23.7537 3.82059 23.7537 3.37833C23.7537 3.29134 23.7537 3.20435 23.7537 3.04365C23.6395 3.15255 23.5724 3.21364 23.5086 3.27739C21.7715 5.01324 20.035 6.74975 18.2978 8.48626C17.8774 8.90661 17.651 8.90661 17.232 8.48825C16.6443 7.90189 16.0566 7.31486 15.4689 6.7285C15.457 6.71655 15.4404 6.70858 15.3487 6.62159C15.2943 6.71323 15.2557 6.82147 15.1827 6.89518C12.2682 9.81504 9.35095 12.7322 6.43242 15.6488C6.34543 15.7358 6.25578 15.8241 6.15484 15.8925C5.95895 16.0233 5.68602 15.9914 5.51934 15.8327C5.35067 15.672 5.30684 15.4071 5.42903 15.2025C5.48747 15.1056 5.56649 15.0186 5.64684 14.9382C8.72541 11.857 11.8046 8.77778 14.8839 5.69788C15.2923 5.28949 15.528 5.28882 15.9344 5.69523C16.5407 6.30018 17.145 6.90647 17.7234 7.48552Z" fill="white" stroke="white" stroke-width="0.5"/>
</svg>
