<svg width="27" height="29" viewBox="0 0 27 29" fill="none" xmlns="http://www.w3.org/2000/svg">
<path d="M1.19697 28.1493C1.07478 28.0191 0.898143 27.9082 0.841698 27.7541C0.716856 27.4095 0.979822 27.1027 1.38091 27.0921C1.76673 27.0815 2.15255 27.0901 2.56493 27.0901C2.56493 26.9646 2.56493 26.8696 2.56493 26.7747C2.56493 25.3609 2.59481 23.9464 2.55497 22.534C2.52442 21.4429 3.28875 20.8294 4.20315 20.8758C4.94358 20.9137 5.68732 20.8825 6.42907 20.8838C7.42981 20.8858 8.00488 21.4562 8.00887 22.4629C8.01351 23.8853 8.01019 25.3078 8.01019 26.7308C8.01019 26.8364 8.01019 26.942 8.01019 27.0688C8.99167 27.0688 9.95721 27.0688 10.9586 27.0688C10.9586 26.9706 10.9586 26.8683 10.9586 26.766C10.9586 23.8415 10.9573 20.917 10.9593 17.9925C10.9599 17.1923 11.3783 16.6292 12.0888 16.4711C12.2336 16.4386 12.3863 16.434 12.5357 16.4333C13.2954 16.43 14.0558 16.4306 14.8154 16.432C15.8354 16.4333 16.4132 17.0064 16.4132 18.0211C16.4138 20.9283 16.4132 23.8349 16.4132 26.7421C16.4132 26.847 16.4132 26.9513 16.4132 27.0735C17.3973 27.0735 18.3642 27.0735 19.3702 27.0735C19.3702 26.9632 19.3702 26.8524 19.3702 26.7408C19.3702 21.2895 19.3729 15.8376 19.3662 10.3864C19.3656 9.73562 19.5774 9.21832 20.179 8.93543C20.4008 8.83117 20.6718 8.79731 20.9215 8.79199C21.6984 8.77406 22.4767 8.7827 23.2536 8.78602C24.2397 8.79067 24.8088 9.36109 24.8122 10.3552C24.8168 11.6361 24.8135 12.9178 24.8135 14.1987C24.8135 18.3777 24.8135 22.5572 24.8135 26.7361C24.8135 26.849 24.8135 26.9613 24.8135 27.0914C25.1648 27.0914 25.4815 27.0907 25.799 27.0914C26.1874 27.0921 26.4092 27.2163 26.4796 27.4713C26.5566 27.7482 26.4544 27.9381 26.115 28.1519C17.8103 28.1493 9.50366 28.1493 1.19697 28.1493ZM20.4314 27.0755C21.557 27.0755 22.64 27.0755 23.7364 27.0755C23.7424 26.9951 23.753 26.9267 23.753 26.8583C23.7537 21.3546 23.7543 15.8509 23.753 10.3472C23.753 9.94347 23.6514 9.84519 23.2483 9.84386C22.5066 9.84187 21.7641 9.8432 21.0224 9.8432C20.4971 9.8432 20.4327 9.9096 20.4327 10.4448C20.4327 15.8868 20.4327 21.3287 20.4327 26.7707C20.4314 26.8663 20.4314 26.9619 20.4314 27.0755ZM15.3414 27.0748C15.3467 27.0204 15.352 26.9858 15.352 26.952C15.3527 23.9504 15.3533 20.9482 15.3513 17.9467C15.3513 17.6193 15.2145 17.4925 14.8745 17.4918C14.1242 17.4891 13.3738 17.4911 12.6234 17.4911C12.1141 17.4911 12.0191 17.5854 12.0191 18.0895C12.0191 20.9854 12.0191 23.8814 12.0191 26.7766C12.0191 26.8716 12.0191 26.9659 12.0191 27.0748C13.1367 27.0748 14.2278 27.0748 15.3414 27.0748ZM3.62543 27.0682C4.75432 27.0682 5.84338 27.0682 6.92778 27.0682C6.93641 27.0303 6.94438 27.0131 6.94438 26.9958C6.94637 25.4592 6.94969 23.9225 6.94571 22.3859C6.94505 22.0638 6.8129 21.9456 6.48485 21.9443C5.69861 21.9416 4.91303 21.9423 4.12679 21.9436C3.73765 21.9443 3.62609 22.0565 3.62543 22.4497C3.6241 23.6151 3.62476 24.7812 3.62476 25.9466C3.62543 26.3165 3.62543 26.6857 3.62543 27.0682Z" fill="black" stroke="black" stroke-width="0.5"/>
<path d="M17.7234 7.26665C19.4645 5.52549 21.1911 3.79895 22.9276 2.06244C22.3758 2.06244 21.8153 2.06244 21.2542 2.06244C20.7561 2.06244 20.4925 1.87252 20.4998 1.52189C20.5071 1.17991 20.7628 1.00194 21.2475 1.00194C22.2104 1.00194 23.1733 0.999946 24.1362 1.0026C24.6116 1.00393 24.8075 1.18323 24.8115 1.65006C24.8195 2.60431 24.8089 3.55856 24.8162 4.51214C24.8208 5.06065 24.3454 5.22999 24.0432 5.06729C23.8088 4.94112 23.755 4.72531 23.7543 4.48492C23.753 4.04332 23.7537 3.60172 23.7537 3.15946C23.7537 3.07247 23.7537 2.98548 23.7537 2.82477C23.6395 2.93368 23.5724 2.99477 23.5086 3.05852C21.7715 4.79437 20.035 6.53088 18.2978 8.26739C17.8774 8.68773 17.651 8.68773 17.232 8.26938C16.6443 7.68302 16.0566 7.09599 15.4689 6.50963C15.457 6.49767 15.4404 6.48971 15.3487 6.40271C15.2943 6.49435 15.2557 6.60259 15.1827 6.6763C12.2682 9.59616 9.35095 12.5134 6.43242 15.4299C6.34543 15.5169 6.25578 15.6052 6.15484 15.6736C5.95895 15.8044 5.68602 15.7726 5.51934 15.6138C5.35067 15.4531 5.30684 15.1882 5.42903 14.9837C5.48747 14.8867 5.56649 14.7997 5.64684 14.7194C8.72541 11.6381 11.8046 8.55891 14.8839 5.47901C15.2923 5.07062 15.528 5.06995 15.9344 5.47635C16.5407 6.08131 17.145 6.68759 17.7234 7.26665Z" fill="black" stroke="black" stroke-width="0.5"/>
</svg>
