<svg width="28" height="28" viewBox="0 0 28 28" fill="none" xmlns="http://www.w3.org/2000/svg">
<path d="M0.276245 24.2785C0.494798 23.486 0.653999 22.6694 0.940981 21.9046C2.46317 17.8428 5.20381 15.0652 9.13217 13.5668C9.20548 13.5384 9.2795 13.5122 9.35282 13.4831C9.37725 13.4736 9.3996 13.4583 9.44289 13.435C7.45148 11.7749 6.43831 9.63328 6.58215 6.9701C6.68968 4.98365 7.4815 3.29804 8.89616 1.96208C11.7464 -0.730227 16.0693 -0.612948 18.7366 2.22796C20.2407 3.8298 20.9375 5.77182 20.7776 8.00959C20.6177 10.2466 19.6234 12.0357 17.9455 13.4102C18.5551 13.6827 19.1625 13.9252 19.7456 14.2203C21.8801 15.2998 23.6083 16.8776 24.9518 18.915C25.3225 19.4774 25.2262 20.1498 24.7269 20.5038C24.2256 20.86 23.6006 20.7172 23.2236 20.1483C21.6993 17.8493 19.6548 16.2868 17.0971 15.4659C10.8115 13.4488 4.15713 17.3132 2.51065 23.9282C2.46666 24.1044 2.42407 24.2807 2.39195 24.4592C2.27185 25.1126 2.71873 25.7711 3.35065 25.7952C4.20391 25.8272 5.05927 25.8032 5.93697 25.8032C6.15203 23.2638 7.21547 21.2125 9.19571 19.7178C10.6208 18.6419 12.2345 18.1458 13.992 18.2238C15.9736 18.3112 17.6871 19.0855 19.1046 20.5336C20.5144 21.9745 21.2685 23.7431 21.4249 25.8024C22.3061 25.8024 23.1705 25.8308 24.0315 25.793C24.6731 25.7646 25.0774 25.1264 24.9685 24.4169C24.8833 23.8648 25.164 23.3607 25.6542 23.1837C26.136 23.0096 26.6688 23.2216 26.9124 23.6863C26.9578 23.7723 26.9962 23.8626 27.0381 23.9515C27.0381 24.4432 27.0381 24.9349 27.0381 25.4266C27.0172 25.4739 26.9906 25.5191 26.976 25.5679C26.6192 26.748 25.8811 27.5259 24.7402 27.8814C24.7011 27.8938 24.6662 27.9193 24.6292 27.939C17.3324 27.939 10.0357 27.939 2.73898 27.939C2.66077 27.9054 2.58397 27.8676 2.50367 27.8392C1.43464 27.4655 0.741979 26.7079 0.40193 25.5934C0.352355 25.4309 0.318838 25.2634 0.277642 25.098C0.276245 24.8249 0.276245 24.5517 0.276245 24.2785ZM8.65526 7.4363C8.64968 10.3275 10.9008 12.6898 13.668 12.6964C16.4387 12.7029 18.7038 10.3537 18.7101 7.4669C18.7164 4.57499 16.4652 2.2134 13.6973 2.20757C10.9246 2.20101 8.66085 4.54877 8.65526 7.4363ZM17.2095 21.7101C14.9863 19.7899 11.7981 20.1607 10.1761 21.729C10.9518 22.3052 11.7031 22.9142 12.5026 23.443C13.2442 23.934 14.0611 23.9398 14.8069 23.4518C15.6231 22.9178 16.394 22.3059 17.2095 21.7101ZM18.5935 23.3833C17.3604 24.1634 16.3444 25.2379 14.9689 25.7886C16.4373 25.7886 17.868 25.7886 19.3099 25.7886C19.2435 24.921 19.0026 24.1336 18.5935 23.3833ZM12.3839 25.7952C10.9888 25.2576 9.99032 24.1627 8.76908 23.3891C8.3613 24.1329 8.11761 24.9247 8.05616 25.7952C9.49316 25.7952 10.912 25.7952 12.3839 25.7952Z" fill="black"/>
</svg>
