<svg width="28" height="29" viewBox="0 0 28 29" fill="none" xmlns="http://www.w3.org/2000/svg">
<path d="M0.276367 24.4972C0.49492 23.7047 0.654121 22.8881 0.941103 22.1233C2.46329 18.0615 5.20393 15.2839 9.13229 13.7855C9.20561 13.7571 9.27962 13.7309 9.35294 13.7018C9.37738 13.6923 9.39972 13.677 9.44301 13.6537C7.4516 11.9936 6.43844 9.85196 6.58228 7.18879C6.68981 5.20234 7.48162 3.51673 8.89628 2.18077C11.7465 -0.511538 16.0694 -0.39426 18.7367 2.44665C20.2408 4.04849 20.9376 5.99051 20.7777 8.22827C20.6178 10.4653 19.6235 12.2544 17.9456 13.6289C18.5552 13.9014 19.1627 14.1439 19.7457 14.4389C21.8803 15.5185 23.6084 17.0963 24.9519 19.1337C25.3226 19.6961 25.2263 20.3684 24.727 20.7225C24.2257 21.0787 23.6008 20.9359 23.2237 20.367C21.6994 18.068 19.6549 16.5055 17.0972 15.6846C10.8116 13.6675 4.15725 17.5319 2.51077 24.1469C2.46678 24.3231 2.42419 24.4994 2.39207 24.6779C2.27197 25.3313 2.71885 25.9898 3.35077 26.0138C4.20403 26.0459 5.05939 26.0219 5.93709 26.0219C6.15215 23.4825 7.21559 21.4312 9.19583 19.9365C10.621 18.8606 12.2346 18.3645 13.9921 18.4424C15.9738 18.5299 17.6873 19.3042 19.1047 20.7523C20.5145 22.1932 21.2686 23.9618 21.425 26.0211C22.3062 26.0211 23.1706 26.0495 24.0316 26.0117C24.6733 25.9832 25.0776 25.3451 24.9686 24.6356C24.8834 24.0835 25.1641 23.5794 25.6543 23.4024C26.1361 23.2283 26.6689 23.4403 26.9126 23.905C26.958 23.991 26.9964 24.0813 27.0382 24.1702C27.0382 24.6619 27.0382 25.1536 27.0382 25.6453C27.0173 25.6926 26.9908 25.7378 26.9761 25.7866C26.6193 26.9666 25.8812 27.7446 24.7403 28.1001C24.7012 28.1125 24.6663 28.138 24.6293 28.1576C17.3326 28.1576 10.0358 28.1576 2.7391 28.1576C2.6609 28.1241 2.58409 28.0863 2.50379 28.0578C1.43477 27.6842 0.742101 26.9266 0.402052 25.8121C0.352477 25.6496 0.318961 25.4821 0.277764 25.3167C0.276367 25.0436 0.276367 24.7704 0.276367 24.4972ZM8.65539 7.65499C8.6498 10.5462 10.901 12.9085 13.6681 12.9151C16.4388 12.9216 18.7039 10.5724 18.7102 7.68559C18.7165 4.79368 16.4653 2.43208 13.6975 2.42626C10.9247 2.4197 8.66097 4.76746 8.65539 7.65499ZM17.2097 21.9288C14.9864 20.0086 11.7982 20.3794 10.1762 21.9477C10.9519 22.5239 11.7033 23.1329 12.5028 23.6617C13.2443 24.1527 14.0612 24.1585 14.807 23.6705C15.6232 23.1365 16.3941 22.5246 17.2097 21.9288ZM18.5936 23.602C17.3605 24.3821 16.3445 25.4566 14.969 26.0073C16.4374 26.0073 17.8681 26.0073 19.31 26.0073C19.2437 25.1397 19.0028 24.3523 18.5936 23.602ZM12.384 26.0138C10.9889 25.4763 9.99044 24.3814 8.7692 23.6078C8.36142 24.3515 8.11773 25.1434 8.05628 26.0138C9.49329 26.0138 10.9121 26.0138 12.384 26.0138Z" fill="white"/>
</svg>
