<svg width="29" height="29" viewBox="0 0 29 29" fill="none" xmlns="http://www.w3.org/2000/svg">
<path d="M28.3926 27.5173C27.9675 26.5409 27.538 25.5667 27.1179 24.5881C25.8765 21.6972 24.6351 18.8063 23.4042 15.9115C23.2056 15.4447 22.8943 15.2287 22.3843 15.2371C21.4081 15.2526 20.432 15.2415 19.3982 15.2415C19.4692 15.1083 19.5208 15.0072 19.5763 14.9084C20.4054 13.4152 21.1579 11.8826 21.5036 10.2002C22.0402 7.58903 21.6784 5.11444 20.003 2.97957C18.3782 0.908529 16.154 0.049251 13.5597 0.301262C9.97034 0.649858 7.42872 3.17662 6.86602 6.74529C6.52973 8.87961 6.97645 10.8624 7.84049 12.7852C8.16401 13.5063 8.54304 14.2024 8.89709 14.9095C8.94537 15.0056 8.99586 15.1011 9.06801 15.2415C8.86712 15.2415 8.70563 15.2415 8.5447 15.2415C7.7245 15.2415 6.90431 15.2531 6.08467 15.2371C5.57468 15.2271 5.26447 15.4474 5.06636 15.9137C3.46481 19.6711 1.85327 23.4235 0.245066 27.1781C-0.0551567 27.8798 0.0414028 28.1795 0.687349 28.5686C9.7195 28.5686 18.7517 28.5686 27.7838 28.5686C27.9864 28.366 28.1895 28.1629 28.392 27.9603C28.3926 27.812 28.3926 27.6644 28.3926 27.5173ZM14.2556 19.7372C14.2112 19.7111 14.1912 19.7061 14.1812 19.6928C13.8582 19.2792 13.528 18.8701 13.2151 18.4494C11.7017 16.4138 10.3039 14.3078 9.28665 11.9704C8.57855 10.3434 8.22561 8.67645 8.53083 6.88795C8.9992 4.14359 10.9742 2.22576 13.7489 1.95099C15.9348 1.7345 18.4076 2.75531 19.4786 5.32204C20.2528 7.17771 20.2433 9.06501 19.5768 10.9584C19.058 12.4338 18.3316 13.8049 17.5191 15.1349C16.5391 16.7397 15.442 18.2617 14.2556 19.7372ZM18.9825 21.7993C18.8893 21.897 18.8277 21.9636 18.7633 22.028C17.4803 23.3114 16.1978 24.5947 14.9137 25.877C14.5752 26.2151 14.2872 26.6824 13.8776 26.8501C13.4587 27.0216 12.9187 26.91 12.432 26.8984C12.2561 26.8939 12.0652 26.8528 11.9104 26.7724C9.3932 25.4729 6.88045 24.1646 4.36714 22.8579C4.24672 22.7951 4.12962 22.728 4.01031 22.6625C4.02197 22.617 4.0253 22.5903 4.03584 22.5659C4.81775 20.7402 5.60243 18.9151 6.37767 17.0866C6.44704 16.9234 6.54471 16.9023 6.69399 16.9029C7.73449 16.9068 8.77556 16.9118 9.81606 16.8995C10.0286 16.8968 10.1385 16.9756 10.26 17.1405C11.3299 18.5926 12.401 20.0441 13.4953 21.4774C13.9503 22.0735 14.4909 22.0597 14.9709 21.4918C15.3088 21.0916 15.6379 20.6836 15.9825 20.2645C16.9759 20.773 17.9648 21.2786 18.9825 21.7993ZM16.2927 26.8961C16.3288 26.8384 16.3393 26.8123 16.3577 26.794C17.7128 25.4379 19.0696 24.0835 20.4209 22.7241C20.5286 22.6159 20.6063 22.627 20.7289 22.6902C22.275 23.4873 23.8238 24.2783 25.3709 25.0732C25.442 25.1099 25.5352 25.1515 25.5641 25.2153C25.8116 25.766 26.0463 26.3216 26.2933 26.8961C22.9431 26.8961 19.6368 26.8961 16.2927 26.8961ZM24.4797 22.6719C24.4636 22.6869 24.4475 22.7024 24.4314 22.7174C21.962 21.4535 19.4925 20.1896 17.0169 18.9228C17.0369 18.8762 17.0458 18.839 17.0663 18.8102C17.4725 18.2184 17.8749 17.6239 18.2933 17.0416C18.3488 16.965 18.4892 16.9123 18.5907 16.9118C19.6495 16.9023 20.7078 16.9112 21.7666 16.9012C21.952 16.8995 22.0374 16.9567 22.1101 17.1277C22.7983 18.7524 23.4969 20.3733 24.1917 21.9947C24.2888 22.2201 24.3837 22.446 24.4797 22.6719ZM3.33551 24.199C5.05359 25.0916 6.74282 25.9697 8.43261 26.8479C8.4265 26.8623 8.42039 26.8767 8.41429 26.8912C6.34882 26.8912 4.2839 26.8912 2.18124 26.8912C2.57025 25.9841 2.94816 25.1015 3.33551 24.199Z" fill="black"/>
</svg>
