<svg width="29" height="27" viewBox="0 0 29 27" fill="none" xmlns="http://www.w3.org/2000/svg">
<path d="M0.733398 9.42863C0.857326 8.94381 0.990786 8.45423 1.36461 8.09947C1.63017 7.84821 1.93386 7.62827 2.24776 7.44034C2.40846 7.34433 2.4786 7.26943 2.47792 7.07877C2.47042 5.12998 2.47315 3.18119 2.47383 1.23308C2.47383 0.538538 2.77275 0.237571 3.46321 0.237571C5.09401 0.23689 6.72549 0.23689 8.3563 0.237571C9.01406 0.238252 9.32388 0.545347 9.32456 1.19971C9.32593 2.26944 9.32593 3.33848 9.32456 4.40821C9.3232 5.0292 9.00726 5.34856 8.38966 5.34924C6.97607 5.35128 5.56248 5.34992 4.12642 5.34992C4.11893 5.42414 4.10599 5.49223 4.10531 5.56032C4.10327 5.84154 4.10395 6.12208 4.10463 6.4033C4.10463 6.67499 4.02224 6.98753 4.12915 7.20747C4.2272 7.4097 4.52953 7.51184 4.74129 7.65892C5.13759 7.93469 5.44196 8.29013 5.6224 8.73817C5.68845 8.9016 5.77357 8.94449 5.94175 8.94381C7.37373 8.937 8.8057 8.93019 10.237 8.94245C12.2968 8.95947 13.9943 10.3336 14.443 12.328C15.0191 14.8855 13.0846 17.441 10.4644 17.5166C8.68041 17.5677 6.89436 17.5248 5.10899 17.535C3.99773 17.5418 3.16973 18.0402 2.64542 19.0262C1.91548 20.3982 2.67334 22.2476 4.16319 22.6984C4.48731 22.7964 4.83594 22.8557 5.17368 22.8564C10.0579 22.8666 14.9422 22.8618 19.8264 22.8673C20.0313 22.8673 20.1396 22.823 20.2281 22.6167C20.6857 21.5579 21.7697 21.0022 22.9954 21.1731C24.0277 21.3175 24.9149 22.2517 25.0545 23.3432C25.222 24.6513 24.4532 25.785 23.1513 26.1513C22.0012 26.4748 20.7027 25.8483 20.2145 24.7146C20.1335 24.526 20.0307 24.4919 19.8509 24.4919C14.9483 24.4953 10.0457 24.5028 5.14372 24.4906C3.27119 24.4858 1.90867 23.6197 1.1079 21.9228C0.928141 21.5367 0.855964 21.1003 0.733398 20.687C0.733398 20.3608 0.733398 20.0346 0.733398 19.7078C0.809661 19.4123 0.864816 19.1099 0.964911 18.8233C1.58591 17.044 3.16837 15.913 5.06133 15.9028C6.80039 15.8933 8.53946 15.9103 10.2785 15.8967C11.7187 15.8851 12.9042 14.6846 12.9137 13.2581C12.9232 11.8153 11.7432 10.5916 10.2969 10.5753C8.8663 10.559 7.43501 10.5767 6.00372 10.5644C5.77765 10.5624 5.6796 10.6393 5.58972 10.8388C4.83662 12.5166 2.51605 12.8121 1.34146 11.3958C1.00645 10.9913 0.84575 10.5235 0.734079 10.0272C0.733398 9.82765 0.733398 9.62814 0.733398 9.42863ZM4.11825 3.70005C5.31735 3.70005 6.49738 3.70005 7.67333 3.70005C7.67333 3.08109 7.67333 2.48052 7.67333 1.88267C6.479 1.88267 5.30509 1.88267 4.11825 1.88267C4.11825 2.48937 4.11825 3.08382 4.11825 3.70005ZM4.21154 9.7507C4.20881 9.25363 3.79549 8.83759 3.29842 8.83282C2.79046 8.82806 2.3642 9.25227 2.36693 9.76023C2.36965 10.2573 2.78297 10.6733 3.28004 10.6781C3.788 10.6829 4.21426 10.2587 4.21154 9.7507ZM23.4611 23.6898C23.4673 23.1927 23.0608 22.7692 22.5637 22.7556C22.0564 22.742 21.6227 23.1587 21.6165 23.6667C21.6104 24.1637 22.0169 24.5873 22.514 24.6009C23.0213 24.6145 23.455 24.1978 23.4611 23.6898Z" fill="white"/>
<path d="M28.5807 7.85911C28.5262 9.76296 27.9113 11.231 26.6543 12.4219C26.5073 12.5615 26.3772 12.7331 26.2846 12.9136C25.3041 14.8201 24.3331 16.7322 23.358 18.6415C23.3008 18.7538 23.2416 18.8689 23.1639 18.967C22.8439 19.3687 22.2297 19.368 21.9111 18.9656C21.8334 18.8675 21.7749 18.7525 21.717 18.6401C20.7378 16.722 19.7628 14.8024 18.7795 12.887C18.6992 12.7304 18.5875 12.5792 18.4595 12.458C16.273 10.3833 15.8781 7.28918 17.4796 4.7296C18.7073 2.76719 21.2104 1.63482 23.484 2.06516C26.1232 2.56495 27.7683 4.15558 28.4309 6.75125C28.5371 7.16797 28.5487 7.60921 28.5807 7.85911ZM22.5375 16.6334C22.6015 16.5197 22.6519 16.4373 22.6955 16.3522C23.4227 14.9257 24.1404 13.4937 24.884 12.076C25.0392 11.7798 25.2585 11.4979 25.5056 11.2732C26.9594 9.95362 27.3536 7.80667 26.4501 5.99951C25.5894 4.27815 23.5773 3.2915 21.6891 3.70005C19.9663 4.07319 18.7972 5.11636 18.3172 6.80777C17.818 8.56658 18.3104 10.0905 19.6511 11.3427C19.8445 11.5231 20.0208 11.7431 20.142 11.9773C20.8972 13.4304 21.6346 14.8923 22.3788 16.3509C22.4231 16.436 22.4728 16.5184 22.5375 16.6334Z" fill="white"/>
<path d="M22.5391 5.46022C23.9357 5.4609 25.1069 6.64025 25.0919 8.02865C25.0762 9.42249 23.9228 10.5692 22.5378 10.5685C21.1412 10.5678 19.97 9.38845 19.985 8.00005C20 6.60689 21.1535 5.45954 22.5391 5.46022ZM22.5378 8.937C23.0348 8.937 23.4529 8.52504 23.4604 8.02797C23.4679 7.52 23.0464 7.0917 22.5378 7.0917C22.0407 7.0917 21.6226 7.50366 21.6151 8.00073C21.6083 8.50938 22.0298 8.937 22.5378 8.937Z" fill="white"/>
</svg>
