<svg width="29" height="27" viewBox="0 0 29 27" fill="none" xmlns="http://www.w3.org/2000/svg">
<path d="M0.733521 9.20988C0.857448 8.72506 0.990908 8.23548 1.36473 7.88072C1.63029 7.62946 1.93398 7.40952 2.24789 7.22159C2.40858 7.12558 2.47872 7.05068 2.47804 6.86002C2.47055 4.91123 2.47327 2.96244 2.47395 1.01433C2.47395 0.319788 2.77288 0.0188212 3.46333 0.0188212C5.09413 0.0181403 6.72561 0.0181403 8.35642 0.0188212C9.01419 0.0195022 9.32401 0.326597 9.32469 0.980961C9.32605 2.05069 9.32605 3.11973 9.32469 4.18946C9.32332 4.81045 9.00738 5.12981 8.38978 5.13049C6.97619 5.13253 5.5626 5.13117 4.12654 5.13117C4.11905 5.20539 4.10612 5.27348 4.10544 5.34157C4.10339 5.62279 4.10407 5.90333 4.10475 6.18455C4.10475 6.45624 4.02236 6.76878 4.12927 6.98872C4.22732 7.19095 4.52965 7.29309 4.74141 7.44017C5.13771 7.71594 5.44208 8.07138 5.62252 8.51942C5.68857 8.68285 5.77369 8.72574 5.94188 8.72506C7.37385 8.71825 8.80583 8.71144 10.2371 8.7237C12.2969 8.74072 13.9944 10.1148 14.4432 12.1092C15.0192 14.6668 13.0847 17.2223 10.4645 17.2978C8.68054 17.3489 6.89448 17.306 5.10911 17.3162C3.99785 17.323 3.16985 17.8215 2.64554 18.8074C1.9156 20.1795 2.67346 22.0289 4.16331 22.4796C4.48743 22.5777 4.83606 22.6369 5.1738 22.6376C10.058 22.6478 14.9423 22.6431 19.8265 22.6485C20.0315 22.6485 20.1397 22.6043 20.2283 22.3979C20.6858 21.3391 21.7699 20.7835 22.9955 20.9544C24.0278 21.0987 24.915 22.033 25.0546 23.1245C25.2221 24.4325 24.4534 25.5662 23.1514 25.9326C22.0014 26.256 20.7029 25.6296 20.2146 24.4958C20.1336 24.3072 20.0308 24.2732 19.851 24.2732C14.9484 24.2766 10.0458 24.2841 5.14384 24.2718C3.27131 24.2671 1.90879 23.4009 1.10803 21.7041C0.928264 21.318 0.856086 20.8815 0.733521 20.4682C0.733521 20.142 0.733521 19.8159 0.733521 19.489C0.809784 19.1935 0.864938 18.8912 0.965033 18.6045C1.58603 16.8253 3.16849 15.6943 5.06145 15.6841C6.80052 15.6745 8.53958 15.6916 10.2787 15.6779C11.7188 15.6664 12.9043 14.4659 12.9138 13.0394C12.9233 11.5965 11.7433 10.3729 10.297 10.3565C8.86643 10.3402 7.43513 10.3579 6.00384 10.3457C5.77777 10.3436 5.67972 10.4206 5.58984 10.6201C4.83674 12.2978 2.51617 12.5934 1.34158 11.1771C1.00657 10.7726 0.845872 10.3048 0.734201 9.8084C0.733521 9.6089 0.733521 9.40939 0.733521 9.20988ZM4.11837 3.4813C5.31747 3.4813 6.49751 3.4813 7.67346 3.4813C7.67346 2.86234 7.67346 2.26177 7.67346 1.66392C6.47912 1.66392 5.30522 1.66392 4.11837 1.66392C4.11837 2.27062 4.11837 2.86507 4.11837 3.4813ZM4.21166 9.53195C4.20894 9.03488 3.79562 8.61884 3.29855 8.61407C2.79058 8.60931 2.36432 9.03352 2.36705 9.54148C2.36977 10.0386 2.78309 10.4546 3.28016 10.4594C3.78813 10.4641 4.21438 10.0399 4.21166 9.53195ZM23.4613 23.4711C23.4674 22.974 23.0609 22.5505 22.5638 22.5368C22.0565 22.5232 21.6228 22.9399 21.6166 23.4479C21.6105 23.945 22.017 24.3685 22.5141 24.3821C23.0214 24.3958 23.4551 23.979 23.4613 23.4711Z" fill="black"/>
<path d="M28.581 7.64046C28.5266 9.54431 27.9117 11.0124 26.6547 12.2033C26.5076 12.3429 26.3776 12.5145 26.285 12.6949C25.3044 14.6015 24.3335 16.5135 23.3584 18.4228C23.3012 18.5352 23.2419 18.6502 23.1643 18.7483C22.8443 19.15 22.2301 19.1494 21.9114 18.7469C21.8338 18.6489 21.7752 18.5338 21.7174 18.4215C20.7382 16.5033 19.7631 14.5838 18.7799 12.6684C18.6995 12.5118 18.5879 12.3606 18.4598 12.2394C16.2734 10.1646 15.8785 7.07053 17.48 4.51095C18.7077 2.54854 21.2108 1.41617 23.4843 1.84651C26.1236 2.3463 27.7687 3.93693 28.4312 6.5326C28.5375 6.94932 28.549 7.39056 28.581 7.64046ZM22.5379 16.4148C22.6019 16.3011 22.6523 16.2187 22.6958 16.1336C23.4231 14.707 24.1408 13.2751 24.8843 11.8574C25.0396 11.5612 25.2588 11.2793 25.506 11.0546C26.9598 9.73496 27.354 7.58802 26.4504 5.78086C25.5898 4.0595 23.5776 3.07284 21.6894 3.4814C19.9667 3.85454 18.7976 4.89771 18.3175 6.58911C17.8184 8.34793 18.3107 9.87183 19.6514 11.124C19.8448 11.3045 20.0212 11.5244 20.1424 11.7587C20.8975 13.2117 21.635 14.6737 22.3792 16.1322C22.4235 16.2173 22.4732 16.2997 22.5379 16.4148Z" fill="black"/>
<path d="M22.5391 5.24146C23.9357 5.24214 25.1069 6.42149 25.0919 7.80989C25.0762 9.20373 23.9228 10.3504 22.5378 10.3497C21.1412 10.349 19.97 9.16968 19.985 7.78129C20 6.38812 21.1535 5.24077 22.5391 5.24146ZM22.5378 8.71823C23.0348 8.71823 23.4529 8.30628 23.4604 7.8092C23.4679 7.30124 23.0464 6.87294 22.5378 6.87294C22.0407 6.87294 21.6226 7.2849 21.6151 7.78197C21.6083 8.29061 22.0298 8.71823 22.5378 8.71823Z" fill="black"/>
</svg>
