<svg width="29" height="29" viewBox="0 0 29 29" fill="none" xmlns="http://www.w3.org/2000/svg">
<path d="M0.962891 14.0067C1.03239 13.4967 1.0741 12.9813 1.17568 12.4776C2.22144 7.30871 5.22935 3.78433 10.1556 1.93981C12.4642 1.07529 14.8647 0.960342 17.2877 1.43297C17.6545 1.50461 17.8528 1.75375 17.7994 2.0569C17.7422 2.37822 17.4615 2.54556 17.0883 2.4782C13.5179 1.83342 10.224 2.51241 7.28292 4.64244C4.32901 6.78208 2.59302 9.69482 2.13911 13.3197C1.72209 16.6489 2.5588 19.6734 4.52683 22.3873C4.56853 22.445 4.61237 22.5012 4.65675 22.5573C4.66744 22.5707 4.68294 22.5808 4.71075 22.6054C5.17856 22.3835 5.67364 22.2836 6.2008 22.3883C7.16423 22.5792 7.87637 23.3347 8.01057 24.3206C8.13568 25.2417 7.61493 26.1988 6.76485 26.6104C5.89659 27.0307 4.84655 26.8494 4.17664 26.1635C3.49764 25.4679 3.3335 24.4318 3.78581 23.572C3.87777 23.3978 3.8751 23.2908 3.75427 23.131C2.13376 20.9876 1.21845 18.5753 1.00727 15.8962C1.00085 15.8181 0.978395 15.7416 0.962891 15.6647C0.962891 15.1118 0.962891 14.5596 0.962891 14.0067ZM5.76613 23.417C5.12189 23.4218 4.59901 23.9511 4.60168 24.5959C4.60435 25.2375 5.13525 25.7668 5.77736 25.7673C6.43177 25.7678 6.96053 25.2305 6.95304 24.5718C6.94556 23.9276 6.41626 23.4122 5.76613 23.417Z" fill="white" stroke="white" stroke-width="0.5"/>
<path d="M13.7981 28.5506C13.2881 28.4806 12.7786 28.4111 12.2685 28.34C12.1803 28.3277 12.0932 28.3095 12.0065 28.2903C11.6612 28.2122 11.4858 27.9737 11.5414 27.6604C11.5954 27.3568 11.8611 27.2071 12.2044 27.2408C13.1068 27.3295 14.0109 27.4723 14.9139 27.4669C19.8257 27.438 24.5054 24.2553 26.3051 19.683C28.0293 15.3032 27.4813 11.1731 24.7722 7.3274C24.722 7.25575 24.6637 7.18999 24.6118 7.12477C23.2939 7.60327 22.2172 7.30173 21.6066 6.29339C21.049 5.3722 21.2238 4.19171 22.0247 3.46833C22.8176 2.75244 23.9986 2.69256 24.8567 3.32505C25.8084 4.0265 26.0089 5.12894 25.4085 6.39284C26.0687 7.24078 26.6285 8.15716 27.0856 9.1377C30.7635 17.0301 26.0853 26.4185 17.5615 28.2325C16.9627 28.3598 16.3484 28.4138 15.741 28.503C15.663 28.5143 15.586 28.5341 15.509 28.5496C14.9391 28.5506 14.3686 28.5506 13.7981 28.5506ZM23.5271 6.30783C24.1729 6.30836 24.7006 5.78548 24.7049 5.14177C24.7091 4.49966 24.1847 3.96502 23.5426 3.95753C22.8876 3.95005 22.3519 4.48309 22.3546 5.13963C22.3567 5.78655 22.8796 6.30729 23.5271 6.30783Z" fill="white" stroke="white" stroke-width="0.5"/>
<path d="M18.9434 22.229C18.2484 22.4985 17.6191 22.738 16.9957 22.9914C16.931 23.0176 16.8658 23.1267 16.8615 23.201C16.8455 23.4764 16.8599 23.7533 16.853 24.0292C16.8439 24.3863 16.6418 24.59 16.2809 24.5916C15.194 24.5964 14.1065 24.5964 13.0196 24.5916C12.6614 24.59 12.4614 24.3831 12.4529 24.0244C12.4464 23.757 12.4464 23.4897 12.4529 23.2224C12.4561 23.0919 12.4251 23.024 12.2839 22.9722C11.6675 22.746 11.0585 22.499 10.3699 22.229C10.2127 22.3953 10.0047 22.6247 9.78659 22.8433C9.46687 23.163 9.18939 23.1593 8.86593 22.8364C8.13401 22.1066 7.40315 21.3757 6.67389 20.6433C6.3499 20.3182 6.34722 20.0434 6.66855 19.7237C6.8824 19.5104 7.10695 19.3077 7.27911 19.1447C7.01072 18.448 6.76906 17.8102 6.51403 17.1782C6.49104 17.1216 6.38358 17.0697 6.31301 17.0665C6.03713 17.0531 5.76072 17.066 5.48431 17.059C5.1277 17.0494 4.924 16.8452 4.92293 16.4853C4.91866 15.4075 4.91919 14.3291 4.92293 13.2513C4.92454 12.8594 5.12449 12.6653 5.51853 12.6584C5.78585 12.6541 6.0537 12.6674 6.31996 12.6503C6.39213 12.6455 6.49479 12.5717 6.52205 12.5049C6.77334 11.889 7.01072 11.2672 7.28018 10.577C7.11711 10.4219 6.89524 10.2177 6.68138 10.0055C6.35578 9.68146 6.35257 9.40398 6.66962 9.08587C7.40529 8.34752 8.14256 7.61025 8.88144 6.87458C9.19474 6.56288 9.47008 6.56342 9.78338 6.86816C9.99403 7.07293 10.202 7.28037 10.4116 7.48568C10.4175 7.49156 10.4276 7.49316 10.3886 7.47605C11.059 7.21782 11.6963 6.97616 12.3283 6.72221C12.3866 6.69868 12.4422 6.59389 12.4454 6.52385C12.4593 6.24851 12.4464 5.97156 12.4534 5.69569C12.4625 5.33801 12.6635 5.13538 13.0255 5.13378C14.1124 5.12897 15.1999 5.12897 16.2868 5.13378C16.645 5.13538 16.845 5.34175 16.8535 5.70157C16.8599 5.97745 16.845 6.25439 16.8626 6.52973C16.8669 6.60084 16.9428 6.70242 17.0102 6.72969C17.6266 6.98044 18.2484 7.21729 18.9263 7.48087C19.0947 7.30818 19.3081 7.08256 19.5289 6.86442C19.8304 6.56609 20.1106 6.56235 20.4105 6.86014C21.1633 7.60704 21.9139 8.35608 22.6608 9.10832C22.9458 9.39543 22.9447 9.68306 22.6592 9.97177C22.4405 10.1926 22.2085 10.4006 22.0278 10.5711C22.2962 11.2678 22.5379 11.905 22.7929 12.5375C22.8159 12.5953 22.9228 12.6482 22.9934 12.6519C23.2692 12.6653 23.5457 12.6525 23.8221 12.6594C24.1808 12.6685 24.3829 12.869 24.3845 13.2299C24.3888 14.3168 24.3893 15.4038 24.3845 16.4907C24.3829 16.8478 24.1755 17.0505 23.8178 17.0596C23.5505 17.0665 23.2831 17.0665 23.0158 17.0596C22.8832 17.0563 22.8191 17.0916 22.7678 17.2312C22.5411 17.8476 22.2941 18.456 22.0262 19.1382C22.1957 19.2997 22.4245 19.5088 22.6432 19.7274C22.9543 20.0386 22.957 20.3187 22.6485 20.6294C21.9075 21.3752 21.1638 22.1189 20.418 22.8599C20.1197 23.1561 19.8342 23.1561 19.5358 22.8578C19.3156 22.6375 19.1086 22.4049 18.9434 22.229ZM7.76082 9.55475C7.76617 9.56491 7.76831 9.574 7.77419 9.58041C7.94955 9.75792 8.12599 9.93381 8.29975 10.1129C8.56707 10.3893 8.59754 10.6037 8.39759 10.925C7.96185 11.6265 7.64855 12.3771 7.45661 13.1802C7.35556 13.6031 7.19784 13.7223 6.76371 13.726C6.51029 13.7282 6.25687 13.7266 6.00773 13.7266C6.00773 14.5061 6.00773 15.2407 6.00773 15.9924C6.28253 15.9924 6.5397 15.9908 6.79686 15.9929C7.18608 15.9956 7.35396 16.1196 7.44325 16.4902C7.63999 17.3103 7.95437 18.0797 8.40026 18.7966C8.59487 19.1094 8.57081 19.3313 8.31151 19.5857C8.11636 19.7777 7.90411 19.9525 7.73035 20.107C8.3083 20.6855 8.83386 21.2116 9.39256 21.7714C9.46206 21.6885 9.5444 21.5832 9.63475 21.4848C9.73152 21.38 9.83364 21.2806 9.93683 21.1822C10.1801 20.9507 10.4025 20.9159 10.6848 21.0918C11.4092 21.5425 12.1834 21.8671 13.0137 22.0622C13.3869 22.1499 13.5141 22.3237 13.5189 22.7065C13.5222 22.9711 13.5195 23.2358 13.5195 23.5042C14.2904 23.5042 15.032 23.5042 15.7848 23.5042C15.7848 23.2251 15.7826 22.9674 15.7853 22.7091C15.7896 22.3215 15.9141 22.1563 16.2884 22.066C17.108 21.8681 17.8784 21.5554 18.5943 21.1073C18.9055 20.9127 19.1242 20.9373 19.3835 21.1993C19.5759 21.3934 19.7502 21.6056 19.8999 21.773C20.4768 21.1961 21.0024 20.6705 21.5562 20.1166C21.3771 19.9482 21.1713 19.7649 20.9772 19.5697C20.7447 19.3355 20.7131 19.1014 20.8879 18.8228C21.3461 18.092 21.668 17.3071 21.8663 16.4682C21.9465 16.1287 22.123 15.9977 22.4769 15.9929C22.7496 15.9897 23.0228 15.9924 23.3019 15.9924C23.3019 15.2236 23.3019 14.489 23.3019 13.726C23.0148 13.726 22.7405 13.7319 22.4673 13.7244C22.116 13.7148 21.9471 13.5812 21.8647 13.2368C21.6664 12.4081 21.3493 11.6302 20.8965 10.9063C20.7115 10.6107 20.7382 10.3829 20.9847 10.138C21.1793 9.94397 21.3894 9.76593 21.5782 9.59378C21.0077 9.02759 20.4789 8.50311 19.9459 7.97381C19.9496 7.97167 19.9309 7.97702 19.9186 7.98878C19.747 8.15719 19.5775 8.32774 19.4054 8.49562C19.1183 8.77684 18.9082 8.80678 18.5724 8.5956C17.8645 8.15077 17.1016 7.84389 16.2905 7.64928C15.9216 7.56106 15.7901 7.39318 15.7858 7.00771C15.7826 6.74413 15.7853 6.48108 15.7853 6.21536C15.0127 6.21536 14.2776 6.21536 13.52 6.21536C13.52 6.48696 13.5222 6.74359 13.5195 6.99969C13.5152 7.39586 13.3874 7.5616 12.9961 7.65569C12.185 7.85137 11.4242 8.16307 10.7153 8.60469C10.395 8.80411 10.1753 8.77577 9.90689 8.49829C9.7235 8.3085 9.55883 8.10052 9.38935 7.90484C8.80819 8.49509 8.28959 9.01957 7.76082 9.55475Z" fill="white" stroke="white" stroke-width="0.5"/>
<path d="M19.0699 14.7194C19.195 17.0991 17.2703 19.1521 14.7954 19.2788C12.4114 19.4007 10.3605 17.4787 10.2349 15.0049C10.1141 12.6198 12.0366 10.5695 14.5099 10.4454C16.896 10.3262 18.9394 12.2408 19.0699 14.7194ZM18.0043 14.8654C18.007 13.0299 16.4934 11.5142 14.6553 11.5121C12.8178 11.5099 11.3031 13.0208 11.3004 14.8589C11.2978 16.6944 12.8108 18.2101 14.6489 18.2133C16.4849 18.216 18.0017 16.7029 18.0043 14.8654Z" fill="white" stroke="white" stroke-width="0.5"/>
</svg>
