<svg width="29" height="29" viewBox="0 0 29 29" fill="none" xmlns="http://www.w3.org/2000/svg">
<path d="M0.962524 13.7879C1.03203 13.2778 1.07373 12.7624 1.17531 12.2588C2.22108 7.08984 5.22898 3.56546 10.1552 1.72094C12.4638 0.856419 14.8643 0.74147 17.2873 1.2141C17.6541 1.28574 17.8525 1.53488 17.799 1.83803C17.7418 2.15935 17.4611 2.32669 17.0879 2.25933C13.5176 1.61454 10.2236 2.29354 7.28255 4.42357C4.32864 6.56321 2.59265 9.47595 2.13874 13.1008C1.72172 16.4301 2.55844 19.4545 4.52646 22.1684C4.56816 22.2261 4.61201 22.2823 4.65638 22.3384C4.66707 22.3518 4.68258 22.3619 4.71038 22.3865C5.17819 22.1647 5.67327 22.0647 6.20043 22.1695C7.16386 22.3603 7.87601 23.1158 8.0102 24.1017C8.13531 25.0229 7.61457 25.9799 6.76448 26.3916C5.89622 26.8118 4.84618 26.6305 4.17627 25.9446C3.49727 25.249 3.33314 24.2129 3.78545 23.3532C3.8774 23.1789 3.87473 23.072 3.7539 22.9121C2.1334 20.7687 1.21808 18.3564 1.0069 15.6773C1.00048 15.5992 0.978029 15.5228 0.962524 15.4458C0.962524 14.893 0.962524 14.3407 0.962524 13.7879ZM5.76577 23.1981C5.12152 23.2029 4.59864 23.7322 4.60131 24.377C4.60399 25.0186 5.13489 25.5479 5.777 25.5484C6.4314 25.549 6.96016 25.0116 6.95268 24.353C6.94519 23.7087 6.41589 23.1933 5.76577 23.1981Z" fill="black" stroke="black" stroke-width="0.5"/>
<path d="M13.7973 28.3319C13.2872 28.2618 12.7777 28.1923 12.2677 28.1212C12.1794 28.1089 12.0923 28.0908 12.0057 28.0715C11.6603 27.9935 11.4849 27.755 11.5405 27.4417C11.5945 27.138 11.8603 26.9883 12.2035 27.022C13.106 27.1108 14.0101 27.2535 14.9131 27.2482C19.8249 27.2193 24.5046 24.0365 26.3042 19.4643C28.0284 15.0845 27.4804 10.9543 24.7714 7.10865C24.7211 7.037 24.6629 6.97124 24.611 6.90602C23.2931 7.38452 22.2163 7.08298 21.6058 6.07464C21.0481 5.15345 21.2229 3.97296 22.0238 3.24958C22.8167 2.53369 23.9978 2.47381 24.8559 3.1063C25.8075 3.80775 26.008 4.91019 25.4076 6.17409C26.0679 7.02203 26.6277 7.93841 27.0848 8.91895C30.7626 16.8114 26.0845 26.1997 17.5606 28.0138C16.9618 28.141 16.3475 28.195 15.7402 28.2843C15.6621 28.2955 15.5851 28.3153 15.5081 28.3308C14.9382 28.3319 14.3677 28.3319 13.7973 28.3319ZM23.5262 6.08908C24.172 6.08961 24.6997 5.56673 24.704 4.92302C24.7083 4.28091 24.1838 3.74627 23.5417 3.73878C22.8868 3.7313 22.351 4.26434 22.3537 4.92088C22.3559 5.5678 22.8787 6.08854 23.5262 6.08908Z" fill="black" stroke="black" stroke-width="0.5"/>
<path d="M18.9433 22.0102C18.2483 22.2797 17.619 22.5192 16.9956 22.7726C16.9309 22.7988 16.8657 22.9079 16.8614 22.9822C16.8454 23.2576 16.8598 23.5345 16.8529 23.8104C16.8438 24.1675 16.6417 24.3712 16.2808 24.3728C15.1939 24.3776 14.1064 24.3776 13.0195 24.3728C12.6613 24.3712 12.4613 24.1643 12.4527 23.8056C12.4463 23.5382 12.4463 23.2709 12.4527 23.0036C12.4559 22.8732 12.4249 22.8053 12.2838 22.7534C11.6673 22.5272 11.0584 22.2802 10.3698 22.0102C10.2126 22.1765 10.0046 22.4059 9.78647 22.6245C9.46675 22.9443 9.18927 22.9405 8.86581 22.6176C8.13388 21.8878 7.40303 21.1569 6.67377 20.4245C6.34978 20.0994 6.3471 19.8246 6.66842 19.5049C6.88228 19.2916 7.10683 19.0889 7.27899 18.9259C7.0106 18.2292 6.76894 17.5914 6.51391 16.9594C6.49092 16.9028 6.38346 16.8509 6.31289 16.8477C6.03701 16.8343 5.7606 16.8472 5.48419 16.8402C5.12758 16.8306 4.92388 16.6264 4.92281 16.2666C4.91853 15.1887 4.91907 14.1103 4.92281 13.0325C4.92441 12.6406 5.12437 12.4465 5.5184 12.4396C5.78573 12.4353 6.05358 12.4487 6.31984 12.4315C6.39201 12.4267 6.49466 12.353 6.52193 12.2861C6.77321 11.6702 7.0106 11.0484 7.28006 10.3582C7.11699 10.2032 6.89511 9.99892 6.68126 9.78666C6.35566 9.46267 6.35245 9.18519 6.66949 8.86707C7.40516 8.12873 8.14244 7.39146 8.88132 6.65579C9.19462 6.34409 9.46996 6.34462 9.78326 6.64937C9.99391 6.85414 10.2019 7.06158 10.4115 7.26689C10.4173 7.27277 10.4275 7.27437 10.3885 7.25726C11.0589 6.99903 11.6962 6.75737 12.3282 6.50341C12.3864 6.47989 12.442 6.3751 12.4453 6.30506C12.4592 6.02972 12.4463 5.75277 12.4533 5.4769C12.4624 5.11922 12.6634 4.91659 13.0253 4.91499C14.1123 4.91017 15.1997 4.91017 16.2867 4.91499C16.6449 4.91659 16.8448 5.12296 16.8534 5.48278C16.8598 5.75865 16.8448 6.0356 16.8625 6.31094C16.8668 6.38205 16.9427 6.48363 17.01 6.5109C17.6265 6.76165 18.2483 6.99849 18.9262 7.26207C19.0946 7.08938 19.3079 6.86376 19.5288 6.64563C19.8303 6.3473 20.1104 6.34356 20.4104 6.64135C21.1632 7.38825 21.9138 8.13729 22.6607 8.88953C22.9457 9.17663 22.9446 9.46427 22.6591 9.75298C22.4404 9.97379 22.2084 10.1818 22.0277 10.3523C22.2961 11.049 22.5377 11.6863 22.7928 12.3187C22.8157 12.3765 22.9227 12.4294 22.9932 12.4332C23.2691 12.4465 23.5455 12.4337 23.8219 12.4406C24.1807 12.4497 24.3828 12.6502 24.3844 13.0111C24.3887 14.098 24.3892 15.185 24.3844 16.2719C24.3828 16.629 24.1754 16.8317 23.8177 16.8408C23.5504 16.8477 23.283 16.8477 23.0157 16.8408C22.8831 16.8376 22.819 16.8728 22.7676 17.0124C22.5409 17.6288 22.2939 18.2373 22.0261 18.9195C22.1956 19.0809 22.4244 19.29 22.6431 19.5086C22.9542 19.8198 22.9569 20.1 22.6484 20.4106C21.9074 21.1564 21.1637 21.9001 20.4179 22.6411C20.1195 22.9373 19.834 22.9373 19.5357 22.639C19.3154 22.4187 19.1085 22.1861 18.9433 22.0102ZM7.7607 9.33596C7.76605 9.34612 7.76819 9.35521 7.77407 9.36162C7.94943 9.53912 8.12586 9.71502 8.29962 9.89413C8.56695 10.1705 8.59742 10.3849 8.39746 10.7063C7.96173 11.4077 7.64843 12.1583 7.45649 12.9614C7.35544 13.3843 7.19772 13.5035 6.76359 13.5073C6.51017 13.5094 6.25675 13.5078 6.0076 13.5078C6.0076 14.2873 6.0076 15.0219 6.0076 15.7736C6.28241 15.7736 6.53957 15.772 6.79674 15.7741C7.18596 15.7768 7.35384 15.9009 7.44312 16.2714C7.63987 17.0915 7.95424 17.8609 8.40014 18.5778C8.59475 18.8906 8.57069 19.1125 8.31139 19.367C8.11624 19.5589 7.90399 19.7337 7.73023 19.8882C8.30818 20.4667 8.83373 20.9928 9.39244 21.5526C9.46194 21.4697 9.54428 21.3644 9.63463 21.266C9.7314 21.1612 9.83352 21.0618 9.9367 20.9634C10.18 20.7319 10.4024 20.6971 10.6847 20.873C11.4091 21.3238 12.1833 21.6483 13.0136 21.8434C13.3868 21.9311 13.514 22.1049 13.5188 22.4877C13.522 22.7523 13.5194 23.017 13.5194 23.2854C14.2903 23.2854 15.0319 23.2854 15.7846 23.2854C15.7846 23.0063 15.7825 22.7486 15.7852 22.4903C15.7895 22.1027 15.914 21.9375 16.2883 21.8472C17.1079 21.6494 17.8783 21.3366 18.5942 20.8886C18.9054 20.6939 19.124 20.7185 19.3833 20.9805C19.5758 21.1746 19.7501 21.3868 19.8998 21.5542C20.4767 20.9773 21.0022 20.4517 21.5561 19.8979C21.377 19.7294 21.1712 19.5461 20.9771 19.3509C20.7445 19.1167 20.713 18.8826 20.8878 18.604C21.346 17.8732 21.6679 17.0883 21.8662 16.2494C21.9464 15.9099 22.1228 15.779 22.4768 15.7741C22.7495 15.7709 23.0227 15.7736 23.3017 15.7736C23.3017 15.0048 23.3017 14.2702 23.3017 13.5073C23.0146 13.5073 22.7404 13.5131 22.4672 13.5056C22.1159 13.496 21.947 13.3624 21.8646 13.0181C21.6663 12.1894 21.3492 11.4114 20.8964 10.6875C20.7114 10.3919 20.7381 10.1641 20.9846 9.91926C21.1792 9.72518 21.3893 9.54714 21.578 9.37499C21.0076 8.8088 20.4788 8.28431 19.9458 7.75502C19.9495 7.75288 19.9308 7.75822 19.9185 7.76999C19.7469 7.9384 19.5774 8.10895 19.4053 8.27683C19.1181 8.55805 18.908 8.58799 18.5723 8.37681C17.8644 7.93198 17.1015 7.6251 16.2904 7.43049C15.9215 7.34227 15.79 7.17439 15.7857 6.78891C15.7825 6.52533 15.7852 6.26229 15.7852 5.99657C15.0126 5.99657 14.2775 5.99657 13.5199 5.99657C13.5199 6.26817 13.522 6.5248 13.5194 6.78089C13.5151 7.17707 13.3873 7.34281 12.9959 7.4369C12.1849 7.63258 11.4241 7.94428 10.7151 8.3859C10.3949 8.58532 10.1752 8.55698 9.90676 8.2795C9.72338 8.0897 9.55871 7.88173 9.38923 7.68605C8.80807 8.27629 8.28947 8.80078 7.7607 9.33596Z" fill="black" stroke="black" stroke-width="0.5"/>
<path d="M19.0699 14.5004C19.195 16.8801 17.2703 18.9332 14.7954 19.0599C12.4114 19.1818 10.3605 17.2597 10.2349 14.7859C10.1141 12.4009 12.0366 10.3505 14.5099 10.2265C16.896 10.1072 18.9394 12.0218 19.0699 14.5004ZM18.0043 14.6464C18.007 12.8109 16.4934 11.2952 14.6553 11.2931C12.8178 11.2909 11.3031 12.8019 11.3004 14.64C11.2978 16.4754 12.8108 17.9911 14.6489 17.9943C16.4849 17.997 18.0017 16.4839 18.0043 14.6464Z" fill="black" stroke="black" stroke-width="0.5"/>
</svg>
