<svg width="29" height="29" viewBox="0 0 29 29" fill="none" xmlns="http://www.w3.org/2000/svg">
<path d="M0.822021 24.1643C0.822021 23.2276 0.822021 22.2908 0.822021 21.3541C1.01831 20.7943 1.39667 20.5066 2.00515 20.4748C2.56559 20.4457 2.98185 19.9584 2.98185 19.4081C2.98253 18.8565 2.56829 18.3719 2.00583 18.3414C1.3987 18.3096 1.01898 18.0226 0.822021 17.4635C0.822021 15.8966 0.822021 14.329 0.822021 12.7621C0.835558 12.712 0.85451 12.662 0.861956 12.6105C1.0799 11.1126 1.89144 10.0439 3.1937 9.30005C7.68392 6.73546 12.1674 4.15937 16.6535 1.58734C17.5639 1.06482 18.4465 0.47934 19.5207 0.331787C19.809 0.331787 20.0973 0.331787 20.3857 0.331787C20.4364 0.347355 20.4865 0.370368 20.5387 0.377813C21.6886 0.538226 22.6626 1.04451 23.334 1.99007C23.8525 2.72039 24.2789 3.5184 24.708 4.3076C24.949 4.75094 24.7839 5.27347 24.3852 5.58549C24.2999 5.65183 24.2092 5.71139 24.128 5.78246C23.8126 6.06064 23.6786 6.41057 23.7686 6.82345C23.9202 7.52264 24.6113 7.84888 25.3064 7.56054C26.0455 7.25393 26.5139 7.41231 26.9112 8.10405C27.2381 8.67328 27.5671 9.24184 27.8886 9.81377C28.9397 11.6853 28.5986 13.7835 27.0188 15.2408C26.9396 15.3139 26.8814 15.4499 26.878 15.5582C26.8638 16.0888 26.874 16.6202 26.8706 17.1515C26.8665 17.8514 26.4692 18.2737 25.7693 18.3285C25.1494 18.3773 24.7101 18.8267 24.7114 19.4101C24.7135 19.9936 25.1534 20.4396 25.7741 20.4877C26.4726 20.5418 26.8672 20.9642 26.8699 21.6688C26.8726 22.326 26.8997 22.9853 26.8604 23.6398C26.832 24.1197 26.7779 24.6165 26.6249 25.0679C26.015 26.8684 24.4055 27.9973 22.488 27.9987C16.726 28.0034 10.9633 28 5.20124 28C5.12002 28 5.03879 28 4.95825 27.994C3.27763 27.8687 2.02817 27.068 1.27213 25.562C1.05621 25.1309 0.968898 24.6327 0.822021 24.1643ZM5.1965 10.6585C5.20056 10.6747 5.20462 10.691 5.20868 10.7072C5.71158 10.7072 6.21448 10.7052 6.71671 10.7079C7.40709 10.7113 7.89104 11.1492 7.89916 11.7733C7.90728 12.4095 7.41928 12.8643 6.71874 12.8684C6.20568 12.8718 5.69196 12.8616 5.1789 12.8711C4.13723 12.8894 3.28846 13.5114 3.06849 14.507C2.95951 14.9998 3.01637 15.5277 2.97846 16.0381C2.96154 16.2675 3.036 16.3779 3.25056 16.4801C4.40526 17.0297 5.05098 17.9597 5.12611 19.2315C5.19785 20.4484 4.68616 21.4116 3.68171 22.106C3.45361 22.2637 3.11993 22.3578 3.01028 22.571C2.89318 22.7991 2.9832 23.1335 2.9832 23.4218C2.9832 23.5119 2.96831 23.6053 2.98726 23.6912C3.0563 24.0046 3.08405 24.3417 3.22213 24.6232C3.6411 25.4774 4.37278 25.8409 5.30886 25.8409C11.0005 25.8389 16.6914 25.8402 22.3831 25.8402C22.4548 25.8402 22.5272 25.8409 22.599 25.8368C23.6014 25.7813 24.4136 25.16 24.6282 24.1989C24.7263 23.7582 24.6735 23.2858 24.7148 22.8296C24.7399 22.5555 24.6444 22.4269 24.3886 22.3152C23.2115 21.8021 22.4304 20.4281 22.5672 19.1516C22.7032 17.8825 23.3523 16.9789 24.5091 16.4361C24.5869 16.3995 24.7006 16.3163 24.6999 16.2554C24.6918 15.6719 24.7412 15.0715 24.6234 14.5084C24.4089 13.4837 23.5351 12.8711 22.4352 12.8698C19.1213 12.867 15.8075 12.8691 12.4936 12.8684C12.3853 12.8684 12.277 12.8718 12.1694 12.8637C11.8053 12.8352 11.5129 12.6748 11.3186 12.3635C11.1013 12.0156 11.0804 11.6494 11.2766 11.2859C11.4885 10.8933 11.8303 10.7079 12.2723 10.7072C14.0551 10.7059 15.8386 10.7065 17.6214 10.7065C17.7284 10.7065 17.8353 10.7065 17.9456 10.7065C17.8022 9.92139 17.9016 9.55792 18.3287 9.27162C18.6929 9.02727 19.166 9.01645 19.5227 9.27162C20.0276 9.63305 20.1034 10.1251 19.8808 10.7065C20.0073 10.7065 20.1048 10.7065 20.2023 10.7065C20.9678 10.7065 21.7333 10.7032 22.4988 10.7072C23.6352 10.7133 24.6356 11.0856 25.4715 11.8592C25.7369 12.1049 25.9602 12.396 26.2079 12.6721C26.386 12.1536 26.3731 11.6487 26.1396 11.1668C25.9433 10.7627 25.7057 10.3796 25.4986 9.98096C25.4208 9.8307 25.3307 9.78535 25.1602 9.8043C23.6677 9.97013 22.2937 9.12271 21.7834 7.71351C21.401 6.65695 21.558 5.66401 22.1787 4.73334C22.2409 4.63994 22.3269 4.48088 22.2897 4.41522C22.0534 3.99219 21.8348 3.54412 21.5187 3.18471C20.8277 2.39821 19.7826 2.28518 18.8147 2.83951C14.3258 5.40951 9.83969 7.98357 5.35285 10.557C5.29803 10.5888 5.24794 10.6246 5.1965 10.6585Z" fill="black"/>
<path d="M18.7605 24.2164C18.1676 24.213 17.6796 23.7182 17.6863 23.126C17.6931 22.5324 18.1906 22.0491 18.7835 22.0592C19.3649 22.0687 19.8428 22.554 19.8435 23.1361C19.8448 23.7284 19.3521 24.2197 18.7605 24.2164Z" fill="black"/>
<path d="M17.0414 5.79128C17.6356 5.79466 18.1209 6.28876 18.1135 6.88236C18.106 7.47528 17.6072 7.9599 17.0156 7.94907C16.4356 7.93824 15.9564 7.45091 15.9557 6.87018C15.9557 6.27861 16.4491 5.78789 17.0414 5.79128Z" fill="black"/>
<path d="M19.8442 15.5683C19.8462 16.1592 19.3521 16.6533 18.7619 16.6506C18.1812 16.6479 17.6959 16.168 17.6864 15.5879C17.6769 14.9957 18.1622 14.4989 18.7558 14.4935C19.3481 14.4874 19.8422 14.9754 19.8442 15.5683Z" fill="black"/>
<path d="M18.7788 20.4334C18.1872 20.4409 17.6898 19.9529 17.6857 19.3613C17.6816 18.7684 18.171 18.2763 18.7646 18.2756C19.3467 18.275 19.8327 18.7521 19.8435 19.3336C19.855 19.9244 19.369 20.426 18.7788 20.4334Z" fill="black"/>
</svg>
