<svg width="29" height="29" viewBox="0 0 29 29" fill="none" xmlns="http://www.w3.org/2000/svg">
<path d="M0.822266 24.3832C0.822266 23.4465 0.822266 22.5097 0.822266 21.5729C1.01855 21.0132 1.39691 20.7255 2.0054 20.6937C2.56583 20.6646 2.98209 20.1773 2.98209 19.627C2.98277 19.0754 2.56854 18.5907 2.00608 18.5603C1.39894 18.5285 1.01923 18.2415 0.822266 17.6824C0.822266 16.1155 0.822266 14.5479 0.822266 12.981C0.835803 12.9309 0.854754 12.8808 0.8622 12.8294C1.08015 11.3315 1.89169 10.2628 3.19395 9.51892C7.68417 6.95433 12.1676 4.37824 16.6538 1.80622C17.5641 1.28369 18.4468 0.698212 19.5209 0.550659C19.8093 0.550659 20.0976 0.550659 20.3859 0.550659C20.4367 0.566227 20.4868 0.58924 20.5389 0.596685C21.6889 0.757098 22.6629 1.26338 23.3343 2.20894C23.8528 2.93926 24.2792 3.73727 24.7083 4.52647C24.9492 4.96981 24.7841 5.49234 24.3854 5.80437C24.3002 5.8707 24.2095 5.93026 24.1282 6.00133C23.8128 6.27951 23.6788 6.62945 23.7688 7.04232C23.9204 7.74151 24.6115 8.06775 25.3066 7.77941C26.0457 7.4728 26.5141 7.63118 26.9114 8.32292C27.2384 8.89215 27.5673 9.46071 27.8888 10.0326C28.94 11.9041 28.5988 14.0024 27.0191 15.4596C26.9399 15.5327 26.8817 15.6688 26.8783 15.7771C26.8641 16.3077 26.8742 16.839 26.8708 17.3704C26.8668 18.0702 26.4695 18.4926 25.7696 18.5474C25.1496 18.5961 24.7103 19.0456 24.7117 19.629C24.7137 20.2125 25.1537 20.6585 25.7743 20.7066C26.4728 20.7607 26.8674 21.1831 26.8701 21.8877C26.8729 22.5449 26.8999 23.2041 26.8607 23.8587C26.8322 24.3385 26.7781 24.8353 26.6251 25.2868C26.0153 27.0872 24.4057 28.2162 22.4882 28.2176C16.7262 28.2223 10.9635 28.2189 5.20148 28.2189C5.12026 28.2189 5.03904 28.2189 4.95849 28.2128C3.27788 28.0876 2.02841 27.2869 1.27237 25.7809C1.05646 25.3498 0.969142 24.8516 0.822266 24.3832ZM5.19674 10.8774C5.20081 10.8936 5.20487 10.9098 5.20893 10.9261C5.71183 10.9261 6.21473 10.9241 6.71695 10.9268C7.40734 10.9301 7.89128 11.3681 7.89941 11.9921C7.90753 12.6284 7.41952 13.0832 6.71898 13.0873C6.20593 13.0907 5.6922 13.0805 5.17915 13.09C4.13748 13.1082 3.28871 13.7303 3.06873 14.7259C2.95976 15.2187 3.01661 15.7466 2.97871 16.257C2.96179 16.4864 3.03624 16.5967 3.2508 16.6989C4.40551 17.2485 5.05122 18.1785 5.12635 19.4503C5.1981 20.6673 4.6864 21.6305 3.68196 22.3249C3.45386 22.4826 3.12017 22.5767 3.01052 22.7899C2.89343 23.018 2.98345 23.3524 2.98345 23.6407C2.98345 23.7307 2.96856 23.8241 2.98751 23.9101C3.05655 24.2235 3.0843 24.5605 3.22237 24.8421C3.64134 25.6963 4.37302 26.0598 5.3091 26.0598C11.0007 26.0577 16.6917 26.0591 22.3833 26.0591C22.4551 26.0591 22.5275 26.0598 22.5992 26.0557C23.6016 26.0002 24.4139 25.3789 24.6284 24.4177C24.7266 23.9771 24.6738 23.5047 24.7151 23.0485C24.7401 22.7743 24.6447 22.6457 24.3888 22.5341C23.2118 22.021 22.4307 20.647 22.5674 19.3705C22.7035 18.1014 23.3526 17.1978 24.5093 16.6549C24.5871 16.6184 24.7008 16.5351 24.7002 16.4742C24.692 15.8908 24.7415 15.2904 24.6237 14.7273C24.4091 13.7025 23.5353 13.09 22.4354 13.0886C19.1216 13.0859 15.8077 13.0879 12.4939 13.0873C12.3856 13.0873 12.2773 13.0907 12.1697 13.0825C11.8055 13.0541 11.5131 12.8937 11.3189 12.5823C11.1016 12.2344 11.0806 11.8683 11.2769 11.5048C11.4887 11.1122 11.8305 10.9268 12.2725 10.9261C14.0554 10.9247 15.8389 10.9254 17.6217 10.9254C17.7286 10.9254 17.8356 10.9254 17.9459 10.9254C17.8024 10.1403 17.9019 9.7768 18.329 9.49049C18.6931 9.24615 19.1662 9.23532 19.5229 9.49049C20.0279 9.85193 20.1037 10.344 19.881 10.9254C20.0076 10.9254 20.105 10.9254 20.2025 10.9254C20.968 10.9254 21.7335 10.922 22.4991 10.9261C23.6355 10.9322 24.6359 11.3044 25.4718 12.0781C25.7371 12.3238 25.9605 12.6148 26.2082 12.891C26.3862 12.3725 26.3733 11.8676 26.1398 11.3857C25.9435 10.9816 25.706 10.5985 25.4989 10.1998C25.421 10.0496 25.331 10.0042 25.1604 10.0232C23.668 10.189 22.294 9.34158 21.7836 7.93238C21.4012 6.87582 21.5582 5.88288 22.1789 4.95221C22.2412 4.85881 22.3271 4.69975 22.2899 4.63409C22.0537 4.21106 21.8351 3.76299 21.519 3.40358C20.8279 2.61708 19.7829 2.50405 18.815 3.05839C14.3261 5.62839 9.83993 8.20244 5.3531 10.7758C5.29827 10.8076 5.24819 10.8435 5.19674 10.8774Z" fill="white"/>
<path d="M18.7608 24.4353C18.1678 24.4319 17.6798 23.9372 17.6866 23.3449C17.6934 22.7513 18.1908 22.2681 18.7838 22.2782C19.3652 22.2877 19.843 22.773 19.8437 23.3551C19.8451 23.9473 19.3523 24.4387 18.7608 24.4353Z" fill="white"/>
<path d="M17.0417 6.01013C17.636 6.01351 18.1213 6.50761 18.1139 7.10121C18.1064 7.69413 17.6076 8.17875 17.016 8.16792C16.4359 8.15709 15.9567 7.66976 15.9561 7.08902C15.9561 6.49746 16.4495 6.00674 17.0417 6.01013Z" fill="white"/>
<path d="M19.8445 15.7872C19.8465 16.3781 19.3524 16.8722 18.7622 16.8695C18.1814 16.8668 17.6961 16.3869 17.6867 15.8068C17.6772 15.2146 18.1625 14.7178 18.7561 14.7124C19.3483 14.7063 19.8424 15.1943 19.8445 15.7872Z" fill="white"/>
<path d="M18.7787 20.6524C18.1871 20.6599 17.6896 20.1719 17.6856 19.5803C17.6815 18.9874 18.1709 18.4953 18.7645 18.4946C19.3466 18.494 19.8325 18.9711 19.8434 19.5525C19.8549 20.1434 19.3689 20.645 18.7787 20.6524Z" fill="white"/>
</svg>
