<svg width="29" height="24" viewBox="0 0 29 24" fill="none" xmlns="http://www.w3.org/2000/svg">
<path d="M8.84758 13.5604L8.84752 13.5604C4.91178 14.2443 1.82573 17.8949 1.76956 21.9937L8.84758 13.5604ZM8.84758 13.5604C13.5829 12.7374 17.9291 15.7345 18.8912 20.5463C18.9859 21.0221 19.0237 21.5312 19.0521 22.0931L8.84758 13.5604ZM10.3796 22.1253H10.3963H10.4131H10.43H10.4468H10.4636H10.4805H10.4973H10.5142H10.531H10.5479H10.5647H10.5816H10.5984H10.6153H10.6321H10.649H10.6658H10.6826H10.6995H10.7163H10.7332H10.75H10.7669H10.7837H10.8006H10.8174H10.8343H10.8511H10.868H10.8848H10.9016H10.9185H10.9353H10.9522H10.969H10.9859H11.0027H11.0196H11.0364H11.0533H11.0701H11.087H11.1038H11.1206H11.1375H11.1543H11.1712H11.188H11.2049H11.2217H11.2386H11.2554H11.2723H11.2891H11.3059H11.3228H11.3396H11.3565H11.3733H11.3902H11.407H11.4239H11.4407H11.4576H11.4744H11.4912H11.5081H11.5249H11.5418H11.5586H11.5755H11.5923H11.6092H11.626H11.6429H11.6597H11.6765H11.6934H11.7102H11.7271H11.7439H11.7608H11.7776H11.7945H11.8113H11.8281H11.845H11.8618H11.8787H11.8955H11.9124H11.9292H11.9461H11.9629H11.9798H11.9966H12.0134H12.0303H12.0471H12.064H12.0808H12.0977H12.1145H12.1314H12.1482H12.165H12.1819H12.1987H12.2156H12.2324H12.2493H12.2661H12.283H12.2998H12.3166H12.3335H12.3503H12.3672H12.384H12.4009H12.4177H12.4346H12.4514H12.4682H12.4851H12.5019H12.5188H12.5356H12.5525H12.5693H12.5862H12.603H12.6198H12.6367H12.6535H12.6704H12.6872H12.7041H12.7209H12.7378H12.7546H12.7714H12.7883H12.8051H12.822H12.8388H12.8557H12.8725H12.8893H12.9062H12.923H12.9399H12.9567H12.9736H12.9904H13.0073H13.0241H13.0409H13.0578H13.0746H13.0915H13.1083H13.1252H13.142H13.1588H13.1757H13.1925H13.2094H13.2262H13.2431H13.2599H13.2767H13.2936H13.3104H13.3273H13.3441H13.361H13.3778H13.3947H13.4115H13.4283H13.4452H13.462H13.4789H13.4957H13.5126H13.5294H13.5462H13.5631H13.5799H13.5968H13.6136H13.6305H13.6473H13.6641H13.681H13.6978H13.7147H13.7315H13.7484H13.7652H13.782H13.7989H13.8157H13.8326H13.8494H13.8663H13.8831H13.8999H13.9168H13.9336H13.9505H13.9673H13.9842H14.001H14.0178H14.0347H14.0515H14.0684H14.0852H14.1021H14.1189H14.1357H14.1526H14.1694H14.1863H14.2031H14.22H14.2368H14.2536H14.2705H14.2873H14.3042H14.321H14.3378H14.3547H14.3715H14.3884H14.4052H14.4221H14.4389H14.4557H14.4726H14.4894H14.5063H14.5231H14.54H14.5568H14.5736H14.5905H14.6073H14.6242H14.641H14.6579H14.6747H14.6915H14.7084H14.7252H14.7421H14.7589H14.7757H14.7926H14.8094H14.8263H14.8431H14.86H14.8768H14.8936H14.9105H14.9273H14.9442H14.961H14.9778H14.9947H15.0115H15.0284H15.0452H15.0621H15.0789H15.0957H15.1126H15.1294H15.1463H15.1631H15.1799H15.1968H15.2136H15.2305H15.2473H15.2641H15.281H15.2978H15.3147H15.3315H15.3484H15.3652H15.382H15.3989H15.4157H15.4326H15.4494H15.4662H15.4831H15.4999H15.5168H15.5336H15.5504H15.5673H15.5841H15.601H15.6178H15.6347H15.6515H15.6683H15.6852H15.702H15.7189H15.7357H15.7525H15.7694H15.7862H15.8031H15.8199H15.8367H15.8536H15.8704H15.8873H15.9041H15.9209H15.9378H15.9546H15.9715H15.9883H16.0052H16.022H16.0388H16.0557H16.0725H16.0894H16.1062H16.123H16.1399H16.1567H16.1736H16.1904H16.2072H16.2241H16.2409H16.2578H16.2746H16.2914H16.3083H16.3251H16.342H16.3588H16.3756H16.3925H16.4093H16.4262H16.443H16.4598H16.4767H16.4935H16.5104H16.5272H16.544H16.5609H16.5777H16.5946H16.6114H16.6282H16.6451H16.6619H16.6788H16.6956H16.7124H16.7293H16.7461H16.763H16.7798H16.7966H16.8135H16.8303H16.8472H16.864H16.8808H16.8977H16.9145H16.9314H16.9482H16.965H16.9819H16.9987H17.0156H17.0324H17.0492H17.0661H17.0829H17.0997H17.1166H17.1334H17.1503H17.1671H17.1839H17.2008H17.2176H17.2345H17.2513H17.2681H17.285H17.3018H17.3187H17.3355H17.3523H17.3692H17.386H17.4029H17.4197H17.4365H17.4534H17.4702H17.4871H17.5039H17.5207H17.5376H17.5544H17.5712H17.5881H17.6049H17.6218H17.6386H17.6554H17.6723H17.6891H17.706H17.7228H17.7396H17.7565H17.7733H17.7901H17.807H17.8238H17.8407H17.8575H17.8743H17.8912H17.908H17.9249H17.9417H17.9585H17.9754H17.9922H18.0091H18.0259H18.0427H18.0596H18.0764H18.0932H18.1101H18.1269H18.1438H18.1606H18.1774H18.1943H18.2111H18.2279H18.2448H18.2616H18.2785H18.2953H18.3121H18.329H18.3458H18.3627H18.3795H18.3963H18.4132H18.43H18.4468H18.4637H18.4805H18.4974H18.5142H18.531H18.5479H18.5647H18.5815H18.5984H18.6152H18.6321H18.6489H18.6657H18.6826H18.6994H18.7162H18.7331H18.7499H18.7668H18.7836H18.8004H18.8173H18.8341H18.851H18.8678H18.8846H18.9015H18.9183H18.9351H18.952H18.9688H18.9857H19.0025H19.0193C19.0314 22.1253 19.0426 22.1251 19.0532 22.1248L10.3796 22.1253ZM10.3796 22.1253H10.363M10.3796 22.1253H10.363M10.363 22.1253H10.3464M10.363 22.1253H10.3464M10.3464 22.1253H10.3298M10.3464 22.1253H10.3298M10.3298 22.1253H10.3132M10.3298 22.1253H10.3132M10.3132 22.1253H10.2966M10.3132 22.1253H10.2966M10.2966 22.1253H10.28M10.2966 22.1253H10.28M10.28 22.1253H10.2633M10.28 22.1253H10.2633M10.2633 22.1253H10.2467M10.2633 22.1253H10.2467M10.2467 22.1253H10.2301M10.2467 22.1253H10.2301M10.2301 22.1253H10.2135M10.2301 22.1253H10.2135M10.2135 22.1253H10.1969M10.2135 22.1253H10.1969M10.1969 22.1253H10.1803M10.1969 22.1253H10.1803M10.1803 22.1253H10.1637M10.1803 22.1253H10.1637M10.1637 22.1253H10.147M10.1637 22.1253H10.147M10.147 22.1253H10.1304M10.147 22.1253H10.1304M10.1304 22.1253H10.1138M10.1304 22.1253H10.1138M10.1138 22.1253H10.0972M10.1138 22.1253H10.0972M10.0972 22.1253H10.0806M10.0972 22.1253H10.0806M10.0806 22.1253H10.064M10.0806 22.1253H10.064M10.064 22.1253H10.0474M10.064 22.1253H10.0474M10.0474 22.1253H10.0307M10.0474 22.1253H10.0307M10.0307 22.1253H10.0141M10.0307 22.1253H10.0141M10.0141 22.1253H9.99751M10.0141 22.1253H9.99751M9.99751 22.1253H9.9809M9.99751 22.1253H9.9809M9.9809 22.1253H9.96428M9.9809 22.1253H9.96428M9.96428 22.1253H9.94767M9.96428 22.1253H9.94767M9.94767 22.1253H9.93105M9.94767 22.1253H9.93105M9.93105 22.1253H9.91444M9.93105 22.1253H9.91444M9.91444 22.1253H9.89782M9.91444 22.1253H9.89782M9.89782 22.1253H9.88121M9.89782 22.1253H9.88121M9.88121 22.1253H9.86459M9.88121 22.1253H9.86459M9.86459 22.1253H9.84798M9.86459 22.1253H9.84798M9.84798 22.1253H9.83136M9.84798 22.1253H9.83136M9.83136 22.1253H9.81475M9.83136 22.1253H9.81475M9.81475 22.1253H9.79813M9.81475 22.1253H9.79813M9.79813 22.1253H9.78152M9.79813 22.1253H9.78152M9.78152 22.1253H9.76491M9.78152 22.1253H9.76491M9.76491 22.1253H9.74829M9.76491 22.1253H9.74829M9.74829 22.1253H9.73168M9.74829 22.1253H9.73168M9.73168 22.1253H9.71506M9.73168 22.1253H9.71506M9.71506 22.1253H9.69845M9.71506 22.1253H9.69845M9.69845 22.1253H9.68183M9.69845 22.1253H9.68183M9.68183 22.1253H9.66522M9.68183 22.1253H9.66522M9.66522 22.1253H9.6486M9.66522 22.1253H9.6486M9.6486 22.1253H9.63199M9.6486 22.1253H9.63199M9.63199 22.1253H9.61537M9.63199 22.1253H9.61537M9.61537 22.1253H9.59876M9.61537 22.1253H9.59876M9.59876 22.1253H9.58214M9.59876 22.1253H9.58214M9.58214 22.1253H9.56553M9.58214 22.1253H9.56553M9.56553 22.1253H9.54891M9.56553 22.1253H9.54891M9.54891 22.1253H9.5323M9.54891 22.1253H9.5323M9.5323 22.1253H9.51569M9.5323 22.1253H9.51569M9.51569 22.1253H9.49907M9.51569 22.1253H9.49907M9.49907 22.1253H9.48246M9.49907 22.1253H9.48246M9.48246 22.1253H9.46584M9.48246 22.1253H9.46584M9.46584 22.1253H9.44923M9.46584 22.1253H9.44923M9.44923 22.1253H9.43261M9.44923 22.1253H9.43261M9.43261 22.1253H9.416M9.43261 22.1253H9.416M9.416 22.1253H9.39938M9.416 22.1253H9.39938M9.39938 22.1253H9.38277M9.39938 22.1253H9.38277M9.38277 22.1253H9.36615M9.38277 22.1253H9.36615M9.36615 22.1253H9.34954M9.36615 22.1253H9.34954M9.34954 22.1253H9.33292M9.34954 22.1253H9.33292M9.33292 22.1253H9.31631M9.33292 22.1253H9.31631M9.31631 22.1253H9.2997M9.31631 22.1253H9.2997M9.2997 22.1253H9.28308M9.2997 22.1253H9.28308M9.28308 22.1253H9.26647M9.28308 22.1253H9.26647M9.26647 22.1253H9.24985M9.26647 22.1253H9.24985M9.24985 22.1253H9.23324M9.24985 22.1253H9.23324M9.23324 22.1253H9.21662M9.23324 22.1253H9.21662M9.21662 22.1253H9.20001M9.21662 22.1253H9.20001M9.20001 22.1253H9.18339M9.20001 22.1253H9.18339M9.18339 22.1253H9.16678M9.18339 22.1253H9.16678M9.16678 22.1253H9.15016M9.16678 22.1253H9.15016M9.15016 22.1253H9.13355M9.15016 22.1253H9.13355M9.13355 22.1253H9.11693M9.13355 22.1253H9.11693M9.11693 22.1253H9.10032M9.11693 22.1253H9.10032M9.10032 22.1253H9.0837M9.10032 22.1253H9.0837M9.0837 22.1253H9.06709M9.0837 22.1253H9.06709M9.06709 22.1253H9.05047M9.06709 22.1253H9.05047M9.05047 22.1253H9.03386M9.05047 22.1253H9.03386M9.03386 22.1253H9.01724M9.03386 22.1253H9.01724M9.01724 22.1253H9.00063M9.01724 22.1253H9.00063M9.00063 22.1253H8.98401M9.00063 22.1253H8.98401M8.98401 22.1253H8.9674M8.98401 22.1253H8.9674M8.9674 22.1253H8.95079M8.9674 22.1253H8.95079M8.95079 22.1253H8.93417M8.95079 22.1253H8.93417M8.93417 22.1253H8.91756M8.93417 22.1253H8.91756M8.91756 22.1253H8.90094M8.91756 22.1253H8.90094M8.90094 22.1253H8.88433M8.90094 22.1253H8.88433M8.88433 22.1253H8.86771M8.88433 22.1253H8.86771M8.86771 22.1253H8.8511M8.86771 22.1253H8.8511M8.8511 22.1253H8.83448M8.8511 22.1253H8.83448M8.83448 22.1253H8.81787M8.83448 22.1253H8.81787M8.81787 22.1253H8.80125M8.81787 22.1253H8.80125M8.80125 22.1253H8.78464M8.80125 22.1253H8.78464M8.78464 22.1253H8.76802M8.78464 22.1253H8.76802M8.76802 22.1253H8.75141M8.76802 22.1253H8.75141M8.75141 22.1253H8.73479M8.75141 22.1253H8.73479M8.73479 22.1253H8.71818M8.73479 22.1253H8.71818M8.71818 22.1253H8.70156M8.71818 22.1253H8.70156M8.70156 22.1253H8.68495M8.70156 22.1253H8.68495M8.68495 22.1253H8.66833M8.68495 22.1253H8.66833M8.66833 22.1253H8.65172M8.66833 22.1253H8.65172M8.65172 22.1253H8.6351M8.65172 22.1253H8.6351M8.6351 22.1253H8.61849M8.6351 22.1253H8.61849M8.61849 22.1253H8.60187M8.61849 22.1253H8.60187M8.60187 22.1253H8.58526M8.60187 22.1253H8.58526M8.58526 22.1253H8.56865M8.58526 22.1253H8.56865M8.56865 22.1253H8.55203M8.56865 22.1253H8.55203M8.55203 22.1253H8.53542M8.55203 22.1253H8.53542M8.53542 22.1253H8.5188M8.53542 22.1253H8.5188M8.5188 22.1253H8.50219M8.5188 22.1253H8.50219M8.50219 22.1253H8.48557M8.50219 22.1253H8.48557M8.48557 22.1253H8.46896M8.48557 22.1253H8.46896M8.46896 22.1253H8.45234M8.46896 22.1253H8.45234M8.45234 22.1253H8.43573M8.45234 22.1253H8.43573M8.43573 22.1253H8.41911M8.43573 22.1253H8.41911M8.41911 22.1253H8.4025M8.41911 22.1253H8.4025M8.4025 22.1253H8.38588M8.4025 22.1253H8.38588M8.38588 22.1253H8.36927M8.38588 22.1253H8.36927M8.36927 22.1253H8.35265M8.36927 22.1253H8.35265M8.35265 22.1253H8.33604M8.35265 22.1253H8.33604M8.33604 22.1253H8.31942M8.33604 22.1253H8.31942M8.31942 22.1253H8.30281M8.31942 22.1253H8.30281M8.30281 22.1253H8.28619M8.30281 22.1253H8.28619M8.28619 22.1253H8.26958M8.28619 22.1253H8.26958M8.26958 22.1253H8.25296M8.26958 22.1253H8.25296M8.25296 22.1253H8.23635M8.25296 22.1253H8.23635M8.23635 22.1253H8.21973M8.23635 22.1253H8.21973M8.21973 22.1253H8.20312M8.21973 22.1253H8.20312M8.20312 22.1253H8.1865M8.20312 22.1253H8.1865M8.1865 22.1253H8.16989M8.1865 22.1253H8.16989M8.16989 22.1253H8.15327M8.16989 22.1253H8.15327M8.15327 22.1253H8.13666M8.15327 22.1253H8.13666M8.13666 22.1253H8.12004M8.13666 22.1253H8.12004M8.12004 22.1253H8.10343M8.12004 22.1253H8.10343M8.10343 22.1253H8.08681M8.10343 22.1253H8.08681M8.08681 22.1253H8.0702M8.08681 22.1253H8.0702M8.0702 22.1253H8.05358M8.0702 22.1253H8.05358M8.05358 22.1253H8.03697M8.05358 22.1253H8.03697M8.03697 22.1253H8.02035M8.03697 22.1253H8.02035M8.02035 22.1253H8.00374M8.02035 22.1253H8.00374M8.00374 22.1253H7.98712M8.00374 22.1253H7.98712M7.98712 22.1253H7.97051M7.98712 22.1253H7.97051M7.97051 22.1253H7.95389M7.97051 22.1253H7.95389M7.95389 22.1253H7.93728M7.95389 22.1253H7.93728M7.93728 22.1253H7.92066M7.93728 22.1253H7.92066M7.92066 22.1253H7.90405M7.92066 22.1253H7.90405M7.90405 22.1253H7.88743M7.90405 22.1253H7.88743M7.88743 22.1253H7.87082M7.88743 22.1253H7.87082M7.87082 22.1253H7.8542M7.87082 22.1253H7.8542M7.8542 22.1253H7.83759M7.8542 22.1253H7.83759M7.83759 22.1253H7.82097M7.83759 22.1253H7.82097M7.82097 22.1253H7.80436M7.82097 22.1253H7.80436M7.80436 22.1253H7.78774M7.80436 22.1253H7.78774M7.78774 22.1253H7.77113M7.78774 22.1253H7.77113M7.77113 22.1253H7.75451M7.77113 22.1253H7.75451M7.75451 22.1253H7.7379M7.75451 22.1253H7.7379M7.7379 22.1253H7.72128M7.7379 22.1253H7.72128M7.72128 22.1253H7.70467M7.72128 22.1253H7.70467M7.70467 22.1253H7.68805M7.70467 22.1253H7.68805M7.68805 22.1253H7.67144M7.68805 22.1253H7.67144M7.67144 22.1253H7.65482M7.67144 22.1253H7.65482M7.65482 22.1253H7.63821M7.65482 22.1253H7.63821M7.63821 22.1253H7.62159M7.63821 22.1253H7.62159M7.62159 22.1253H7.60498M7.62159 22.1253H7.60498M7.60498 22.1253H7.58836M7.60498 22.1253H7.58836M7.58836 22.1253H7.57175M7.58836 22.1253H7.57175M7.57175 22.1253H7.55513M7.57175 22.1253H7.55513M7.55513 22.1253H7.53852M7.55513 22.1253H7.53852M7.53852 22.1253H7.5219M7.53852 22.1253H7.5219M7.5219 22.1253H7.50529M7.5219 22.1253H7.50529M7.50529 22.1253H7.48867M7.50529 22.1253H7.48867M7.48867 22.1253H7.47205M7.48867 22.1253H7.47205M7.47205 22.1253H7.45544M7.47205 22.1253H7.45544M7.45544 22.1253H7.43882M7.45544 22.1253H7.43882M7.43882 22.1253H7.42221M7.43882 22.1253H7.42221M7.42221 22.1253H7.40559M7.42221 22.1253H7.40559M7.40559 22.1253H7.38898M7.40559 22.1253H7.38898M7.38898 22.1253H7.37236M7.38898 22.1253H7.37236M7.37236 22.1253H7.35575M7.37236 22.1253H7.35575M7.35575 22.1253H7.33913M7.35575 22.1253H7.33913M7.33913 22.1253H7.32252M7.33913 22.1253H7.32252M7.32252 22.1253H7.3059M7.32252 22.1253H7.3059M7.3059 22.1253H7.28929M7.3059 22.1253H7.28929M7.28929 22.1253H7.27267M7.28929 22.1253H7.27267M7.27267 22.1253H7.25606M7.27267 22.1253H7.25606M7.25606 22.1253H7.23944M7.25606 22.1253H7.23944M7.23944 22.1253H7.22283M7.23944 22.1253H7.22283M7.22283 22.1253H7.20621M7.22283 22.1253H7.20621M7.20621 22.1253H7.1896M7.20621 22.1253H7.1896M7.1896 22.1253H7.17298M7.1896 22.1253H7.17298M7.17298 22.1253H7.15637M7.17298 22.1253H7.15637M7.15637 22.1253H7.13975M7.15637 22.1253H7.13975M7.13975 22.1253H7.12314M7.13975 22.1253H7.12314M7.12314 22.1253H7.10652M7.12314 22.1253H7.10652M7.10652 22.1253H7.0899M7.10652 22.1253H7.0899M7.0899 22.1253H7.07329M7.0899 22.1253H7.07329M7.07329 22.1253H7.05667M7.07329 22.1253H7.05667M7.05667 22.1253H7.04006M7.05667 22.1253H7.04006M7.04006 22.1253H7.02344M7.04006 22.1253H7.02344M7.02344 22.1253H7.00683M7.02344 22.1253H7.00683M7.00683 22.1253H6.99021M7.00683 22.1253H6.99021M6.99021 22.1253H6.9736M6.99021 22.1253H6.9736M6.9736 22.1253H6.95698M6.9736 22.1253H6.95698M6.95698 22.1253H6.94037M6.95698 22.1253H6.94037M6.94037 22.1253H6.92375M6.94037 22.1253H6.92375M6.92375 22.1253H6.90714M6.92375 22.1253H6.90714M6.90714 22.1253H6.89052M6.90714 22.1253H6.89052M6.89052 22.1253H6.8739M6.89052 22.1253H6.8739M6.8739 22.1253H6.85729M6.8739 22.1253H6.85729M6.85729 22.1253H6.84067M6.85729 22.1253H6.84067M6.84067 22.1253H6.82406M6.84067 22.1253H6.82406M6.82406 22.1253H6.80744M6.82406 22.1253H6.80744M6.80744 22.1253H6.79083M6.80744 22.1253H6.79083M6.79083 22.1253H6.77421M6.79083 22.1253H6.77421M6.77421 22.1253H6.7576M6.77421 22.1253H6.7576M6.7576 22.1253H6.74098M6.7576 22.1253H6.74098M6.74098 22.1253H6.72437M6.74098 22.1253H6.72437M6.72437 22.1253H6.70775M6.72437 22.1253H6.70775M6.70775 22.1253H6.69113M6.70775 22.1253H6.69113M6.69113 22.1253H6.67452M6.69113 22.1253H6.67452M6.67452 22.1253H6.6579M6.67452 22.1253H6.6579M6.6579 22.1253H6.64129M6.6579 22.1253H6.64129M6.64129 22.1253H6.62467M6.64129 22.1253H6.62467M6.62467 22.1253H6.60806M6.62467 22.1253H6.60806M6.60806 22.1253H6.59144M6.60806 22.1253H6.59144M6.59144 22.1253H6.57483M6.59144 22.1253H6.57483M6.57483 22.1253H6.55821M6.57483 22.1253H6.55821M6.55821 22.1253H6.54159M6.55821 22.1253H6.54159M6.54159 22.1253H6.52498M6.54159 22.1253H6.52498M6.52498 22.1253H6.50836M6.52498 22.1253H6.50836M6.50836 22.1253H6.49175M6.50836 22.1253H6.49175M6.49175 22.1253H6.47513M6.49175 22.1253H6.47513M6.47513 22.1253H6.45852M6.47513 22.1253H6.45852M6.45852 22.1253H6.4419M6.45852 22.1253H6.4419M6.4419 22.1253H6.42529M6.4419 22.1253H6.42529M6.42529 22.1253H6.40867M6.42529 22.1253H6.40867M6.40867 22.1253H6.39205M6.40867 22.1253H6.39205M6.39205 22.1253H6.37544M6.39205 22.1253H6.37544M6.37544 22.1253H6.35882M6.37544 22.1253H6.35882M6.35882 22.1253H6.34221M6.35882 22.1253H6.34221M6.34221 22.1253H6.32559M6.34221 22.1253H6.32559M6.32559 22.1253H6.30898M6.32559 22.1253H6.30898M6.30898 22.1253H6.29236M6.30898 22.1253H6.29236M6.29236 22.1253H6.27574M6.29236 22.1253H6.27574M6.27574 22.1253H6.25913M6.27574 22.1253H6.25913M6.25913 22.1253H6.24251M6.25913 22.1253H6.24251M6.24251 22.1253H6.2259M6.24251 22.1253H6.2259M6.2259 22.1253H6.20928M6.2259 22.1253H6.20928M6.20928 22.1253H6.19267M6.20928 22.1253H6.19267M6.19267 22.1253H6.17605M6.19267 22.1253H6.17605M6.17605 22.1253H6.15943M6.17605 22.1253H6.15943M6.15943 22.1253H6.14282M6.15943 22.1253H6.14282M6.14282 22.1253H6.1262M6.14282 22.1253H6.1262M6.1262 22.1253H6.10959M6.1262 22.1253H6.10959M6.10959 22.1253H6.09297M6.10959 22.1253H6.09297M6.09297 22.1253H6.07636M6.09297 22.1253H6.07636M6.07636 22.1253H6.05974M6.07636 22.1253H6.05974M6.05974 22.1253H6.04312M6.05974 22.1253H6.04312M6.04312 22.1253H6.02651M6.04312 22.1253H6.02651M6.02651 22.1253H6.00989M6.02651 22.1253H6.00989M6.00989 22.1253H5.99328M6.00989 22.1253H5.99328M5.99328 22.1253H5.97666M5.99328 22.1253H5.97666M5.97666 22.1253H5.96004M5.97666 22.1253H5.96004M5.96004 22.1253H5.94343M5.96004 22.1253H5.94343M5.94343 22.1253H5.92681M5.94343 22.1253H5.92681M5.92681 22.1253H5.9102M5.92681 22.1253H5.9102M5.9102 22.1253H5.89358M5.9102 22.1253H5.89358M5.89358 22.1253H5.87697M5.89358 22.1253H5.87697M5.87697 22.1253H5.86035M5.87697 22.1253H5.86035M5.86035 22.1253H5.84373M5.86035 22.1253H5.84373M5.84373 22.1253H5.82712M5.84373 22.1253H5.82712M5.82712 22.1253H5.8105M5.82712 22.1253H5.8105M5.8105 22.1253H5.79389M5.8105 22.1253H5.79389M5.79389 22.1253H5.77727M5.79389 22.1253H5.77727M5.77727 22.1253H5.76065M5.77727 22.1253H5.76065M5.76065 22.1253H5.74404M5.76065 22.1253H5.74404M5.74404 22.1253H5.72742M5.74404 22.1253H5.72742M5.72742 22.1253H5.71081M5.72742 22.1253H5.71081M5.71081 22.1253H5.69419M5.71081 22.1253H5.69419M5.69419 22.1253H5.67757M5.69419 22.1253H5.67757M5.67757 22.1253H5.66096M5.67757 22.1253H5.66096M5.66096 22.1253H5.64434M5.66096 22.1253H5.64434M5.64434 22.1253H5.62773M5.64434 22.1253H5.62773M5.62773 22.1253H5.61111M5.62773 22.1253H5.61111M5.61111 22.1253H5.59449M5.61111 22.1253H5.59449M5.59449 22.1253H5.57788M5.59449 22.1253H5.57788M5.57788 22.1253H5.56126M5.57788 22.1253H5.56126M5.56126 22.1253H5.54465M5.56126 22.1253H5.54465M5.54465 22.1253H5.52803M5.54465 22.1253H5.52803M5.52803 22.1253H5.51141M5.52803 22.1253H5.51141M5.51141 22.1253H5.4948M5.51141 22.1253H5.4948M5.4948 22.1253H5.47818M5.4948 22.1253H5.47818M5.47818 22.1253H5.46156M5.47818 22.1253H5.46156M5.46156 22.1253H5.44495M5.46156 22.1253H5.44495M5.44495 22.1253H5.42833M5.44495 22.1253H5.42833M5.42833 22.1253H5.41172M5.42833 22.1253H5.41172M5.41172 22.1253H5.3951M5.41172 22.1253H5.3951M5.3951 22.1253H5.37848M5.3951 22.1253H5.37848M5.37848 22.1253H5.36187M5.37848 22.1253H5.36187M5.36187 22.1253H5.34525M5.36187 22.1253H5.34525M5.34525 22.1253H5.32863M5.34525 22.1253H5.32863M5.32863 22.1253H5.31202M5.32863 22.1253H5.31202M5.31202 22.1253H5.2954M5.31202 22.1253H5.2954M5.2954 22.1253H5.27879M5.2954 22.1253H5.27879M5.27879 22.1253H5.26217M5.27879 22.1253H5.26217M5.26217 22.1253H5.24555M5.26217 22.1253H5.24555M5.24555 22.1253H5.22894M5.24555 22.1253H5.22894M5.22894 22.1253H5.21232M5.22894 22.1253H5.21232M5.21232 22.1253H5.1957M5.21232 22.1253H5.1957M5.1957 22.1253H5.17909M5.1957 22.1253H5.17909M5.17909 22.1253H5.16247M5.17909 22.1253H5.16247M5.16247 22.1253H5.14586M5.16247 22.1253H5.14586M5.14586 22.1253H5.12924M5.14586 22.1253H5.12924M5.12924 22.1253H5.11262M5.12924 22.1253H5.11262M5.11262 22.1253H5.09601M5.11262 22.1253H5.09601M5.09601 22.1253H5.07939M5.09601 22.1253H5.07939M5.07939 22.1253H5.06277M5.07939 22.1253H5.06277M5.06277 22.1253H5.04616M5.06277 22.1253H5.04616M5.04616 22.1253H5.02954M5.04616 22.1253H5.02954M5.02954 22.1253H5.01292M5.02954 22.1253H5.01292M5.01292 22.1253H4.99631M5.01292 22.1253H4.99631M4.99631 22.1253H4.97969M4.99631 22.1253H4.97969M4.97969 22.1253H4.96307M4.97969 22.1253H4.96307M4.96307 22.1253H4.94646M4.96307 22.1253H4.94646M4.94646 22.1253H4.92984M4.94646 22.1253H4.92984M4.92984 22.1253H4.91323M4.92984 22.1253H4.91323M4.91323 22.1253H4.89661M4.91323 22.1253H4.89661M4.89661 22.1253H4.87999M4.89661 22.1253H4.87999M4.87999 22.1253H4.86338M4.87999 22.1253H4.86338M4.86338 22.1253H4.84676M4.86338 22.1253H4.84676M4.84676 22.1253H4.83014M4.84676 22.1253H4.83014M4.83014 22.1253H4.81353M4.83014 22.1253H4.81353M4.81353 22.1253H4.79691M4.81353 22.1253H4.79691M4.79691 22.1253H4.78029M4.79691 22.1253H4.78029M4.78029 22.1253H4.76368M4.78029 22.1253H4.76368M4.76368 22.1253H4.74706M4.76368 22.1253H4.74706M4.74706 22.1253H4.73044M4.74706 22.1253H4.73044M4.73044 22.1253H4.71383M4.73044 22.1253H4.71383M4.71383 22.1253H4.69721M4.71383 22.1253H4.69721M4.69721 22.1253H4.68059M4.69721 22.1253H4.68059M4.68059 22.1253H4.66398M4.68059 22.1253H4.66398M4.66398 22.1253H4.64736M4.66398 22.1253H4.64736M4.64736 22.1253H4.63074M4.64736 22.1253H4.63074M4.63074 22.1253H4.61413M4.63074 22.1253H4.61413M4.61413 22.1253H4.59751M4.61413 22.1253H4.59751M4.59751 22.1253H4.58089M4.59751 22.1253H4.58089M4.58089 22.1253H4.56428M4.58089 22.1253H4.56428M4.56428 22.1253H4.54766M4.56428 22.1253H4.54766M4.54766 22.1253H4.53104M4.54766 22.1253H4.53104M4.53104 22.1253H4.51443M4.53104 22.1253H4.51443M4.51443 22.1253H4.49781M4.51443 22.1253H4.49781M4.49781 22.1253H4.48119M4.49781 22.1253H4.48119M4.48119 22.1253H4.46457M4.48119 22.1253H4.46457M4.46457 22.1253H4.44796M4.46457 22.1253H4.44796M4.44796 22.1253H4.43134M4.44796 22.1253H4.43134M4.43134 22.1253H4.41472M4.43134 22.1253H4.41472M4.41472 22.1253H4.39811M4.41472 22.1253H4.39811M4.39811 22.1253H4.38149M4.39811 22.1253H4.38149M4.38149 22.1253H4.36487M4.38149 22.1253H4.36487M4.36487 22.1253H4.34826M4.36487 22.1253H4.34826M4.34826 22.1253H4.33164M4.34826 22.1253H4.33164M4.33164 22.1253H4.31502M4.33164 22.1253H4.31502M4.31502 22.1253H4.29841M4.31502 22.1253H4.29841M4.29841 22.1253H4.28179M4.29841 22.1253H4.28179M4.28179 22.1253H4.26517M4.28179 22.1253H4.26517M4.26517 22.1253H4.24855M4.26517 22.1253H4.24855M4.24855 22.1253H4.23194M4.24855 22.1253H4.23194M4.23194 22.1253H4.21532M4.23194 22.1253H4.21532M4.21532 22.1253H4.1987M4.21532 22.1253H4.1987M4.1987 22.1253H4.18209M4.1987 22.1253H4.18209M4.18209 22.1253H4.16547M4.18209 22.1253H4.16547M4.16547 22.1253H4.14885M4.16547 22.1253H4.14885M4.14885 22.1253H4.13224M4.14885 22.1253H4.13224M4.13224 22.1253H4.11562M4.13224 22.1253H4.11562M4.11562 22.1253H4.099M4.11562 22.1253H4.099M4.099 22.1253H4.08238M4.099 22.1253H4.08238M4.08238 22.1253H4.06577M4.08238 22.1253H4.06577M4.06577 22.1253H4.04915M4.06577 22.1253H4.04915M4.04915 22.1253H4.03253M4.04915 22.1253H4.03253M4.03253 22.1253H4.01592M4.03253 22.1253H4.01592M4.01592 22.1253H3.9993M4.01592 22.1253H3.9993M3.9993 22.1253H3.98268M3.9993 22.1253H3.98268M3.98268 22.1253H3.96606M3.98268 22.1253H3.96606M3.96606 22.1253H3.94945M3.96606 22.1253H3.94945M3.94945 22.1253H3.93283M3.94945 22.1253H3.93283M3.93283 22.1253H3.91621M3.93283 22.1253H3.91621M3.91621 22.1253H3.89959M3.91621 22.1253H3.89959M3.89959 22.1253H3.88298M3.89959 22.1253H3.88298M3.88298 22.1253H3.86636M3.88298 22.1253H3.86636M3.86636 22.1253H3.84974M3.86636 22.1253H3.84974M3.84974 22.1253H3.83313M3.84974 22.1253H3.83313M3.83313 22.1253H3.81651M3.83313 22.1253H3.81651M3.81651 22.1253H3.79989M3.81651 22.1253H3.79989M3.79989 22.1253H3.78327M3.79989 22.1253H3.78327M3.78327 22.1253H3.76666M3.78327 22.1253H3.76666M3.76666 22.1253H3.75004M3.76666 22.1253H3.75004M3.75004 22.1253H3.73342M3.75004 22.1253H3.73342M3.73342 22.1253H3.7168M3.73342 22.1253H3.7168M3.7168 22.1253H3.70019M3.7168 22.1253H3.70019M3.70019 22.1253H3.68357M3.70019 22.1253H3.68357M3.68357 22.1253H3.66695M3.68357 22.1253H3.66695M3.66695 22.1253H3.65033M3.66695 22.1253H3.65033M3.65033 22.1253H3.63372M3.65033 22.1253H3.63372M3.63372 22.1253H3.6171M3.63372 22.1253H3.6171M3.6171 22.1253H3.60048M3.6171 22.1253H3.60048M3.60048 22.1253H3.58386M3.60048 22.1253H3.58386M3.58386 22.1253H3.56725M3.58386 22.1253H3.56725M3.56725 22.1253H3.55063M3.56725 22.1253H3.55063M3.55063 22.1253H3.53401M3.55063 22.1253H3.53401M3.53401 22.1253H3.51739M3.53401 22.1253H3.51739M3.51739 22.1253H3.50078M3.51739 22.1253H3.50078M3.50078 22.1253H3.48416M3.50078 22.1253H3.48416M3.48416 22.1253H3.46754M3.48416 22.1253H3.46754M3.46754 22.1253H3.45092M3.46754 22.1253H3.45092M3.45092 22.1253H3.43431M3.45092 22.1253H3.43431M3.43431 22.1253H3.41769M3.43431 22.1253H3.41769M3.41769 22.1253H3.40107M3.41769 22.1253H3.40107M3.40107 22.1253H3.38445M3.40107 22.1253H3.38445M3.38445 22.1253H3.36783M3.38445 22.1253H3.36783M3.36783 22.1253H3.35122M3.36783 22.1253H3.35122M3.35122 22.1253H3.3346M3.35122 22.1253H3.3346M3.3346 22.1253H3.31798M3.3346 22.1253H3.31798M3.31798 22.1253H3.30136M3.31798 22.1253H3.30136M3.30136 22.1253H3.28475M3.30136 22.1253H3.28475M3.28475 22.1253H3.26813M3.28475 22.1253H3.26813M3.26813 22.1253H3.25151M3.26813 22.1253H3.25151M3.25151 22.1253H3.23489M3.25151 22.1253H3.23489M3.23489 22.1253H3.21827M3.23489 22.1253H3.21827M3.21827 22.1253H3.20166M3.21827 22.1253H3.20166M3.20166 22.1253H3.18504M3.20166 22.1253H3.18504M3.18504 22.1253H3.16842M3.18504 22.1253H3.16842M3.16842 22.1253H3.1518M3.16842 22.1253H3.1518M3.1518 22.1253H3.13518M3.1518 22.1253H3.13518M3.13518 22.1253H3.11857M3.13518 22.1253H3.11857M3.11857 22.1253H3.10195M3.11857 22.1253H3.10195M3.10195 22.1253H3.08533M3.10195 22.1253H3.08533M3.08533 22.1253H3.06871M3.08533 22.1253H3.06871M3.06871 22.1253H3.05209M3.06871 22.1253H3.05209M3.05209 22.1253H3.03548M3.05209 22.1253H3.03548M3.03548 22.1253H3.01886M3.03548 22.1253H3.01886M3.01886 22.1253H3.00224M3.01886 22.1253H3.00224M3.00224 22.1253H2.98562M3.00224 22.1253H2.98562M2.98562 22.1253H2.969M2.98562 22.1253H2.969M2.969 22.1253H2.95239M2.969 22.1253H2.95239M2.95239 22.1253H2.93577M2.95239 22.1253H2.93577M2.93577 22.1253H2.91915M2.93577 22.1253H2.91915M2.91915 22.1253H2.90253M2.91915 22.1253H2.90253M2.90253 22.1253H2.88591M2.90253 22.1253H2.88591M2.88591 22.1253H2.8693M2.88591 22.1253H2.8693M2.8693 22.1253H2.85268M2.8693 22.1253H2.85268M2.85268 22.1253H2.83606M2.85268 22.1253H2.83606M2.83606 22.1253H2.81944M2.83606 22.1253H2.81944M2.81944 22.1253H2.80282M2.81944 22.1253H2.80282M2.80282 22.1253H2.7862M2.80282 22.1253H2.7862M2.7862 22.1253H2.76959M2.7862 22.1253H2.76959M2.76959 22.1253H2.75297M2.76959 22.1253H2.75297M2.75297 22.1253H2.73635M2.75297 22.1253H2.73635M2.73635 22.1253H2.71973M2.73635 22.1253H2.71973M2.71973 22.1253H2.70311M2.71973 22.1253H2.70311M2.70311 22.1253H2.68649M2.70311 22.1253H2.68649M2.68649 22.1253H2.66988M2.68649 22.1253H2.66988M2.66988 22.1253H2.65326M2.66988 22.1253H2.65326M2.65326 22.1253H2.63664M2.65326 22.1253H2.63664M2.63664 22.1253H2.62002M2.63664 22.1253H2.62002M2.62002 22.1253H2.6034M2.62002 22.1253H2.6034M2.6034 22.1253H2.58678M2.6034 22.1253H2.58678M2.58678 22.1253H2.57017M2.58678 22.1253H2.57017M2.57017 22.1253H2.55355M2.57017 22.1253H2.55355M2.55355 22.1253H2.53693M2.55355 22.1253H2.53693M2.53693 22.1253H2.52031M2.53693 22.1253H2.52031M2.52031 22.1253H2.50369M2.52031 22.1253H2.50369M2.50369 22.1253H2.48707M2.50369 22.1253H2.48707M2.48707 22.1253H2.47045M2.48707 22.1253H2.47045M2.47045 22.1253H2.45384M2.47045 22.1253H2.45384M2.45384 22.1253H2.43722M2.45384 22.1253H2.43722M2.43722 22.1253H2.4206M2.43722 22.1253H2.4206M2.4206 22.1253H2.40398M2.4206 22.1253H2.40398M2.40398 22.1253H2.38736M2.40398 22.1253H2.38736M2.38736 22.1253H2.37074M2.38736 22.1253H2.37074M2.37074 22.1253H2.35412M2.37074 22.1253H2.35412M2.35412 22.1253H2.33751M2.35412 22.1253H2.33751M2.33751 22.1253H2.32089M2.33751 22.1253H2.32089M2.32089 22.1253H2.30427M2.32089 22.1253H2.30427M2.30427 22.1253H2.28765M2.30427 22.1253H2.28765M2.28765 22.1253H2.27103M2.28765 22.1253H2.27103M2.27103 22.1253H2.25441M2.27103 22.1253H2.25441M2.25441 22.1253H2.23779M2.25441 22.1253H2.23779M2.23779 22.1253H2.22117M2.23779 22.1253H2.22117M2.22117 22.1253H2.20456M2.22117 22.1253H2.20456M2.20456 22.1253H2.18794M2.20456 22.1253H2.18794M2.18794 22.1253H2.17132M2.18794 22.1253H2.17132M2.17132 22.1253H2.1547M2.17132 22.1253H2.1547M2.1547 22.1253H2.13808M2.1547 22.1253H2.13808M2.13808 22.1253H2.12146M2.13808 22.1253H2.12146M2.12146 22.1253H2.10484M2.12146 22.1253H2.10484M2.10484 22.1253H2.08822M2.10484 22.1253H2.08822M2.08822 22.1253H2.0716M2.08822 22.1253H2.0716M2.0716 22.1253H2.05498M2.0716 22.1253H2.05498M2.05498 22.1253H2.03837M2.05498 22.1253H2.03837M2.03837 22.1253H2.02175M2.03837 22.1253H2.02175M2.02175 22.1253H2.00513M2.02175 22.1253H2.00513M2.00513 22.1253H1.98851M2.00513 22.1253H1.98851M1.98851 22.1253H1.97189M1.98851 22.1253H1.97189M1.97189 22.1253H1.95527M1.97189 22.1253H1.95527M1.95527 22.1253H1.93865M1.95527 22.1253H1.93865M1.93865 22.1253H1.92203M1.93865 22.1253H1.92203M1.92203 22.1253H1.90541M1.92203 22.1253H1.90541M1.90541 22.1253H1.88879M1.90541 22.1253H1.88879M1.88879 22.1253C1.84276 22.1253 1.80416 22.1239 1.77216 22.1216M1.88879 22.1253L1.77216 22.1216M1.77216 22.1216C1.77004 22.087 1.76887 22.0448 1.76956 21.9938L1.77216 22.1216Z" stroke="white" stroke-width="2.1"/>
<path d="M10.5101 1.11057L10.51 1.11057C8.1235 1.07463 6.18629 2.96417 6.14812 5.46993L10.5101 1.11057ZM10.5101 1.11057C12.8036 1.14488 14.6968 3.10537 14.6644 5.55637M10.5101 1.11057L14.6644 5.55637M14.6644 5.55637C14.6325 7.96698 12.674 9.86672 10.2859 9.82376M14.6644 5.55637L10.2859 9.82376M10.2859 9.82376C8.03641 9.7825 6.11327 7.78771 6.14812 5.47007L10.2859 9.82376Z" stroke="white" stroke-width="2.1"/>
<path d="M19.8821 13.7792C20.1764 13.6844 20.4769 13.6166 20.7847 13.5754L20.7851 13.5753C23.9342 13.1531 26.738 15.1383 27.4203 18.3241L27.4203 18.3241C27.4904 18.6514 27.5276 19.0047 27.5438 19.3776L19.8821 13.7792ZM19.8821 13.7792C21.3035 15.4121 22.2324 17.3163 22.7044 19.4523C22.9029 19.4521 23.1007 19.4524 23.297 19.4527C23.4455 19.4529 23.5931 19.4531 23.7394 19.4531C24.153 19.4531 24.5662 19.4532 24.9794 19.4533C25.8049 19.4535 26.6299 19.4537 27.4553 19.4531L19.8821 13.7792ZM27.5438 19.3776C27.545 19.4051 27.5452 19.4292 27.545 19.4503C27.5197 19.452 27.4901 19.4531 27.4556 19.4531L27.5438 19.3776Z" stroke="white" stroke-width="2.1"/>
<path d="M21.6389 4.3564L21.6386 4.3564C20.0526 4.35296 18.7332 5.66414 18.7296 7.31776L21.6389 4.3564ZM21.6389 4.3564C23.2183 4.35927 24.5331 5.67538 24.5296 7.33584M21.6389 4.3564L24.5296 7.33584M24.5296 7.33584C24.5261 8.98941 23.206 10.3012 21.6202 10.2983M24.5296 7.33584L21.6202 10.2983M21.6202 10.2983C20.043 10.2955 18.7269 8.97838 18.7296 7.31813L21.6202 10.2983Z" stroke="white" stroke-width="2.1"/>
</svg>
