<svg width="29" height="24" viewBox="0 0 29 24" fill="none" xmlns="http://www.w3.org/2000/svg">
<path d="M8.84745 13.9476L8.84739 13.9476C4.91166 14.6315 1.82561 18.2821 1.76944 22.3809L8.84745 13.9476ZM8.84745 13.9476C13.5827 13.1246 17.929 16.1217 18.8911 20.9335C18.9858 21.4093 19.0236 21.9185 19.052 22.4803L8.84745 13.9476ZM10.3795 22.5125H10.3961H10.413H10.4298H10.4467H10.4635H10.4804H10.4972H10.5141H10.5309H10.5478H10.5646H10.5815H10.5983H10.6151H10.632H10.6488H10.6657H10.6825H10.6994H10.7162H10.7331H10.7499H10.7668H10.7836H10.8005H10.8173H10.8341H10.851H10.8678H10.8847H10.9015H10.9184H10.9352H10.9521H10.9689H10.9858H11.0026H11.0194H11.0363H11.0531H11.07H11.0868H11.1037H11.1205H11.1374H11.1542H11.1711H11.1879H11.2048H11.2216H11.2384H11.2553H11.2721H11.289H11.3058H11.3227H11.3395H11.3564H11.3732H11.3901H11.4069H11.4237H11.4406H11.4574H11.4743H11.4911H11.508H11.5248H11.5417H11.5585H11.5753H11.5922H11.609H11.6259H11.6427H11.6596H11.6764H11.6933H11.7101H11.727H11.7438H11.7606H11.7775H11.7943H11.8112H11.828H11.8449H11.8617H11.8786H11.8954H11.9123H11.9291H11.9459H11.9628H11.9796H11.9965H12.0133H12.0302H12.047H12.0639H12.0807H12.0975H12.1144H12.1312H12.1481H12.1649H12.1818H12.1986H12.2155H12.2323H12.2491H12.266H12.2828H12.2997H12.3165H12.3334H12.3502H12.3671H12.3839H12.4007H12.4176H12.4344H12.4513H12.4681H12.485H12.5018H12.5187H12.5355H12.5523H12.5692H12.586H12.6029H12.6197H12.6366H12.6534H12.6703H12.6871H12.7039H12.7208H12.7376H12.7545H12.7713H12.7882H12.805H12.8218H12.8387H12.8555H12.8724H12.8892H12.9061H12.9229H12.9398H12.9566H12.9734H12.9903H13.0071H13.024H13.0408H13.0577H13.0745H13.0913H13.1082H13.125H13.1419H13.1587H13.1756H13.1924H13.2093H13.2261H13.2429H13.2598H13.2766H13.2935H13.3103H13.3272H13.344H13.3608H13.3777H13.3945H13.4114H13.4282H13.4451H13.4619H13.4787H13.4956H13.5124H13.5293H13.5461H13.563H13.5798H13.5966H13.6135H13.6303H13.6472H13.664H13.6809H13.6977H13.7146H13.7314H13.7482H13.7651H13.7819H13.7988H13.8156H13.8324H13.8493H13.8661H13.883H13.8998H13.9167H13.9335H13.9503H13.9672H13.984H14.0009H14.0177H14.0346H14.0514H14.0682H14.0851H14.1019H14.1188H14.1356H14.1525H14.1693H14.1861H14.203H14.2198H14.2367H14.2535H14.2704H14.2872H14.304H14.3209H14.3377H14.3546H14.3714H14.3883H14.4051H14.4219H14.4388H14.4556H14.4725H14.4893H14.5061H14.523H14.5398H14.5567H14.5735H14.5904H14.6072H14.624H14.6409H14.6577H14.6746H14.6914H14.7083H14.7251H14.7419H14.7588H14.7756H14.7925H14.8093H14.8261H14.843H14.8598H14.8767H14.8935H14.9104H14.9272H14.944H14.9609H14.9777H14.9946H15.0114H15.0282H15.0451H15.0619H15.0788H15.0956H15.1125H15.1293H15.1461H15.163H15.1798H15.1967H15.2135H15.2303H15.2472H15.264H15.2809H15.2977H15.3146H15.3314H15.3482H15.3651H15.3819H15.3988H15.4156H15.4324H15.4493H15.4661H15.483H15.4998H15.5166H15.5335H15.5503H15.5672H15.584H15.6009H15.6177H15.6345H15.6514H15.6682H15.6851H15.7019H15.7187H15.7356H15.7524H15.7693H15.7861H15.8029H15.8198H15.8366H15.8535H15.8703H15.8871H15.904H15.9208H15.9377H15.9545H15.9713H15.9882H16.005H16.0219H16.0387H16.0556H16.0724H16.0892H16.1061H16.1229H16.1398H16.1566H16.1734H16.1903H16.2071H16.224H16.2408H16.2576H16.2745H16.2913H16.3082H16.325H16.3418H16.3587H16.3755H16.3924H16.4092H16.426H16.4429H16.4597H16.4766H16.4934H16.5102H16.5271H16.5439H16.5608H16.5776H16.5944H16.6113H16.6281H16.645H16.6618H16.6786H16.6955H16.7123H16.7292H16.746H16.7628H16.7797H16.7965H16.8134H16.8302H16.847H16.8639H16.8807H16.8976H16.9144H16.9312H16.9481H16.9649H16.9818H16.9986H17.0154H17.0323H17.0491H17.0659H17.0828H17.0996H17.1165H17.1333H17.1501H17.167H17.1838H17.2007H17.2175H17.2343H17.2512H17.268H17.2849H17.3017H17.3185H17.3354H17.3522H17.3691H17.3859H17.4027H17.4196H17.4364H17.4533H17.4701H17.4869H17.5038H17.5206H17.5374H17.5543H17.5711H17.588H17.6048H17.6216H17.6385H17.6553H17.6722H17.689H17.7058H17.7227H17.7395H17.7563H17.7732H17.79H17.8069H17.8237H17.8405H17.8574H17.8742H17.8911H17.9079H17.9247H17.9416H17.9584H17.9753H17.9921H18.0089H18.0258H18.0426H18.0594H18.0763H18.0931H18.11H18.1268H18.1436H18.1605H18.1773H18.1942H18.211H18.2278H18.2447H18.2615H18.2783H18.2952H18.312H18.3289H18.3457H18.3625H18.3794H18.3962H18.413H18.4299H18.4467H18.4636H18.4804H18.4972H18.5141H18.5309H18.5478H18.5646H18.5814H18.5983H18.6151H18.6319H18.6488H18.6656H18.6825H18.6993H18.7161H18.733H18.7498H18.7666H18.7835H18.8003H18.8172H18.834H18.8508H18.8677H18.8845H18.9013H18.9182H18.935H18.9519H18.9687H18.9855H19.0024H19.0192C19.0312 22.5125 19.0425 22.5124 19.053 22.512L10.3795 22.5125ZM10.3795 22.5125H10.3629M10.3795 22.5125H10.3629M10.3629 22.5125H10.3463M10.3629 22.5125H10.3463M10.3463 22.5125H10.3297M10.3463 22.5125H10.3297M10.3297 22.5125H10.3131M10.3297 22.5125H10.3131M10.3131 22.5125H10.2965M10.3131 22.5125H10.2965M10.2965 22.5125H10.2798M10.2965 22.5125H10.2798M10.2798 22.5125H10.2632M10.2798 22.5125H10.2632M10.2632 22.5125H10.2466M10.2632 22.5125H10.2466M10.2466 22.5125H10.23M10.2466 22.5125H10.23M10.23 22.5125H10.2134M10.23 22.5125H10.2134M10.2134 22.5125H10.1968M10.2134 22.5125H10.1968M10.1968 22.5125H10.1802M10.1968 22.5125H10.1802M10.1802 22.5125H10.1635M10.1802 22.5125H10.1635M10.1635 22.5125H10.1469M10.1635 22.5125H10.1469M10.1469 22.5125H10.1303M10.1469 22.5125H10.1303M10.1303 22.5125H10.1137M10.1303 22.5125H10.1137M10.1137 22.5125H10.0971M10.1137 22.5125H10.0971M10.0971 22.5125H10.0805M10.0971 22.5125H10.0805M10.0805 22.5125H10.0638M10.0805 22.5125H10.0638M10.0638 22.5125H10.0472M10.0638 22.5125H10.0472M10.0472 22.5125H10.0306M10.0472 22.5125H10.0306M10.0306 22.5125H10.014M10.0306 22.5125H10.014M10.014 22.5125H9.99739M10.014 22.5125H9.99739M9.99739 22.5125H9.98077M9.99739 22.5125H9.98077M9.98077 22.5125H9.96416M9.98077 22.5125H9.96416M9.96416 22.5125H9.94755M9.96416 22.5125H9.94755M9.94755 22.5125H9.93093M9.94755 22.5125H9.93093M9.93093 22.5125H9.91432M9.93093 22.5125H9.91432M9.91432 22.5125H9.8977M9.91432 22.5125H9.8977M9.8977 22.5125H9.88109M9.8977 22.5125H9.88109M9.88109 22.5125H9.86447M9.88109 22.5125H9.86447M9.86447 22.5125H9.84786M9.86447 22.5125H9.84786M9.84786 22.5125H9.83124M9.84786 22.5125H9.83124M9.83124 22.5125H9.81463M9.83124 22.5125H9.81463M9.81463 22.5125H9.79801M9.81463 22.5125H9.79801M9.79801 22.5125H9.7814M9.79801 22.5125H9.7814M9.7814 22.5125H9.76478M9.7814 22.5125H9.76478M9.76478 22.5125H9.74817M9.76478 22.5125H9.74817M9.74817 22.5125H9.73155M9.74817 22.5125H9.73155M9.73155 22.5125H9.71494M9.73155 22.5125H9.71494M9.71494 22.5125H9.69833M9.71494 22.5125H9.69833M9.69833 22.5125H9.68171M9.69833 22.5125H9.68171M9.68171 22.5125H9.6651M9.68171 22.5125H9.6651M9.6651 22.5125H9.64848M9.6651 22.5125H9.64848M9.64848 22.5125H9.63187M9.64848 22.5125H9.63187M9.63187 22.5125H9.61525M9.63187 22.5125H9.61525M9.61525 22.5125H9.59864M9.61525 22.5125H9.59864M9.59864 22.5125H9.58202M9.59864 22.5125H9.58202M9.58202 22.5125H9.56541M9.58202 22.5125H9.56541M9.56541 22.5125H9.54879M9.56541 22.5125H9.54879M9.54879 22.5125H9.53218M9.54879 22.5125H9.53218M9.53218 22.5125H9.51556M9.53218 22.5125H9.51556M9.51556 22.5125H9.49895M9.51556 22.5125H9.49895M9.49895 22.5125H9.48233M9.49895 22.5125H9.48233M9.48233 22.5125H9.46572M9.48233 22.5125H9.46572M9.46572 22.5125H9.44911M9.46572 22.5125H9.44911M9.44911 22.5125H9.43249M9.44911 22.5125H9.43249M9.43249 22.5125H9.41588M9.43249 22.5125H9.41588M9.41588 22.5125H9.39926M9.41588 22.5125H9.39926M9.39926 22.5125H9.38265M9.39926 22.5125H9.38265M9.38265 22.5125H9.36603M9.38265 22.5125H9.36603M9.36603 22.5125H9.34942M9.36603 22.5125H9.34942M9.34942 22.5125H9.3328M9.34942 22.5125H9.3328M9.3328 22.5125H9.31619M9.3328 22.5125H9.31619M9.31619 22.5125H9.29957M9.31619 22.5125H9.29957M9.29957 22.5125H9.28296M9.29957 22.5125H9.28296M9.28296 22.5125H9.26634M9.28296 22.5125H9.26634M9.26634 22.5125H9.24973M9.26634 22.5125H9.24973M9.24973 22.5125H9.23311M9.24973 22.5125H9.23311M9.23311 22.5125H9.2165M9.23311 22.5125H9.2165M9.2165 22.5125H9.19988M9.2165 22.5125H9.19988M9.19988 22.5125H9.18327M9.19988 22.5125H9.18327M9.18327 22.5125H9.16665M9.18327 22.5125H9.16665M9.16665 22.5125H9.15004M9.16665 22.5125H9.15004M9.15004 22.5125H9.13343M9.15004 22.5125H9.13343M9.13343 22.5125H9.11681M9.13343 22.5125H9.11681M9.11681 22.5125H9.1002M9.11681 22.5125H9.1002M9.1002 22.5125H9.08358M9.1002 22.5125H9.08358M9.08358 22.5125H9.06697M9.08358 22.5125H9.06697M9.06697 22.5125H9.05035M9.06697 22.5125H9.05035M9.05035 22.5125H9.03374M9.05035 22.5125H9.03374M9.03374 22.5125H9.01712M9.03374 22.5125H9.01712M9.01712 22.5125H9.00051M9.01712 22.5125H9.00051M9.00051 22.5125H8.98389M9.00051 22.5125H8.98389M8.98389 22.5125H8.96728M8.98389 22.5125H8.96728M8.96728 22.5125H8.95066M8.96728 22.5125H8.95066M8.95066 22.5125H8.93405M8.95066 22.5125H8.93405M8.93405 22.5125H8.91743M8.93405 22.5125H8.91743M8.91743 22.5125H8.90082M8.91743 22.5125H8.90082M8.90082 22.5125H8.8842M8.90082 22.5125H8.8842M8.8842 22.5125H8.86759M8.8842 22.5125H8.86759M8.86759 22.5125H8.85097M8.86759 22.5125H8.85097M8.85097 22.5125H8.83436M8.85097 22.5125H8.83436M8.83436 22.5125H8.81775M8.83436 22.5125H8.81775M8.81775 22.5125H8.80113M8.81775 22.5125H8.80113M8.80113 22.5125H8.78452M8.80113 22.5125H8.78452M8.78452 22.5125H8.7679M8.78452 22.5125H8.7679M8.7679 22.5125H8.75129M8.7679 22.5125H8.75129M8.75129 22.5125H8.73467M8.75129 22.5125H8.73467M8.73467 22.5125H8.71806M8.73467 22.5125H8.71806M8.71806 22.5125H8.70144M8.71806 22.5125H8.70144M8.70144 22.5125H8.68483M8.70144 22.5125H8.68483M8.68483 22.5125H8.66821M8.68483 22.5125H8.66821M8.66821 22.5125H8.6516M8.66821 22.5125H8.6516M8.6516 22.5125H8.63498M8.6516 22.5125H8.63498M8.63498 22.5125H8.61837M8.63498 22.5125H8.61837M8.61837 22.5125H8.60175M8.61837 22.5125H8.60175M8.60175 22.5125H8.58514M8.60175 22.5125H8.58514M8.58514 22.5125H8.56852M8.58514 22.5125H8.56852M8.56852 22.5125H8.55191M8.56852 22.5125H8.55191M8.55191 22.5125H8.53529M8.55191 22.5125H8.53529M8.53529 22.5125H8.51868M8.53529 22.5125H8.51868M8.51868 22.5125H8.50206M8.51868 22.5125H8.50206M8.50206 22.5125H8.48545M8.50206 22.5125H8.48545M8.48545 22.5125H8.46883M8.48545 22.5125H8.46883M8.46883 22.5125H8.45222M8.46883 22.5125H8.45222M8.45222 22.5125H8.4356M8.45222 22.5125H8.4356M8.4356 22.5125H8.41899M8.4356 22.5125H8.41899M8.41899 22.5125H8.40237M8.41899 22.5125H8.40237M8.40237 22.5125H8.38576M8.40237 22.5125H8.38576M8.38576 22.5125H8.36914M8.38576 22.5125H8.36914M8.36914 22.5125H8.35253M8.36914 22.5125H8.35253M8.35253 22.5125H8.33591M8.35253 22.5125H8.33591M8.33591 22.5125H8.3193M8.33591 22.5125H8.3193M8.3193 22.5125H8.30268M8.3193 22.5125H8.30268M8.30268 22.5125H8.28607M8.30268 22.5125H8.28607M8.28607 22.5125H8.26945M8.28607 22.5125H8.26945M8.26945 22.5125H8.25284M8.26945 22.5125H8.25284M8.25284 22.5125H8.23623M8.25284 22.5125H8.23623M8.23623 22.5125H8.21961M8.23623 22.5125H8.21961M8.21961 22.5125H8.203M8.21961 22.5125H8.203M8.203 22.5125H8.18638M8.203 22.5125H8.18638M8.18638 22.5125H8.16977M8.18638 22.5125H8.16977M8.16977 22.5125H8.15315M8.16977 22.5125H8.15315M8.15315 22.5125H8.13654M8.15315 22.5125H8.13654M8.13654 22.5125H8.11992M8.13654 22.5125H8.11992M8.11992 22.5125H8.10331M8.11992 22.5125H8.10331M8.10331 22.5125H8.08669M8.10331 22.5125H8.08669M8.08669 22.5125H8.07008M8.08669 22.5125H8.07008M8.07008 22.5125H8.05346M8.07008 22.5125H8.05346M8.05346 22.5125H8.03685M8.05346 22.5125H8.03685M8.03685 22.5125H8.02023M8.03685 22.5125H8.02023M8.02023 22.5125H8.00362M8.02023 22.5125H8.00362M8.00362 22.5125H7.987M8.00362 22.5125H7.987M7.987 22.5125H7.97039M7.987 22.5125H7.97039M7.97039 22.5125H7.95377M7.97039 22.5125H7.95377M7.95377 22.5125H7.93716M7.95377 22.5125H7.93716M7.93716 22.5125H7.92054M7.93716 22.5125H7.92054M7.92054 22.5125H7.90393M7.92054 22.5125H7.90393M7.90393 22.5125H7.88731M7.90393 22.5125H7.88731M7.88731 22.5125H7.8707M7.88731 22.5125H7.8707M7.8707 22.5125H7.85408M7.8707 22.5125H7.85408M7.85408 22.5125H7.83747M7.85408 22.5125H7.83747M7.83747 22.5125H7.82085M7.83747 22.5125H7.82085M7.82085 22.5125H7.80424M7.82085 22.5125H7.80424M7.80424 22.5125H7.78762M7.80424 22.5125H7.78762M7.78762 22.5125H7.77101M7.78762 22.5125H7.77101M7.77101 22.5125H7.75439M7.77101 22.5125H7.75439M7.75439 22.5125H7.73777M7.75439 22.5125H7.73777M7.73777 22.5125H7.72116M7.73777 22.5125H7.72116M7.72116 22.5125H7.70455M7.72116 22.5125H7.70455M7.70455 22.5125H7.68793M7.70455 22.5125H7.68793M7.68793 22.5125H7.67131M7.68793 22.5125H7.67131M7.67131 22.5125H7.6547M7.67131 22.5125H7.6547M7.6547 22.5125H7.63808M7.6547 22.5125H7.63808M7.63808 22.5125H7.62147M7.63808 22.5125H7.62147M7.62147 22.5125H7.60485M7.62147 22.5125H7.60485M7.60485 22.5125H7.58824M7.60485 22.5125H7.58824M7.58824 22.5125H7.57162M7.58824 22.5125H7.57162M7.57162 22.5125H7.55501M7.57162 22.5125H7.55501M7.55501 22.5125H7.53839M7.55501 22.5125H7.53839M7.53839 22.5125H7.52178M7.53839 22.5125H7.52178M7.52178 22.5125H7.50516M7.52178 22.5125H7.50516M7.50516 22.5125H7.48855M7.50516 22.5125H7.48855M7.48855 22.5125H7.47193M7.48855 22.5125H7.47193M7.47193 22.5125H7.45532M7.47193 22.5125H7.45532M7.45532 22.5125H7.4387M7.45532 22.5125H7.4387M7.4387 22.5125H7.42209M7.4387 22.5125H7.42209M7.42209 22.5125H7.40547M7.42209 22.5125H7.40547M7.40547 22.5125H7.38886M7.40547 22.5125H7.38886M7.38886 22.5125H7.37224M7.38886 22.5125H7.37224M7.37224 22.5125H7.35563M7.37224 22.5125H7.35563M7.35563 22.5125H7.33901M7.35563 22.5125H7.33901M7.33901 22.5125H7.3224M7.33901 22.5125H7.3224M7.3224 22.5125H7.30578M7.3224 22.5125H7.30578M7.30578 22.5125H7.28917M7.30578 22.5125H7.28917M7.28917 22.5125H7.27255M7.28917 22.5125H7.27255M7.27255 22.5125H7.25594M7.27255 22.5125H7.25594M7.25594 22.5125H7.23932M7.25594 22.5125H7.23932M7.23932 22.5125H7.2227M7.23932 22.5125H7.2227M7.2227 22.5125H7.20609M7.2227 22.5125H7.20609M7.20609 22.5125H7.18947M7.20609 22.5125H7.18947M7.18947 22.5125H7.17286M7.18947 22.5125H7.17286M7.17286 22.5125H7.15624M7.17286 22.5125H7.15624M7.15624 22.5125H7.13963M7.15624 22.5125H7.13963M7.13963 22.5125H7.12301M7.13963 22.5125H7.12301M7.12301 22.5125H7.1064M7.12301 22.5125H7.1064M7.1064 22.5125H7.08978M7.1064 22.5125H7.08978M7.08978 22.5125H7.07317M7.08978 22.5125H7.07317M7.07317 22.5125H7.05655M7.07317 22.5125H7.05655M7.05655 22.5125H7.03994M7.05655 22.5125H7.03994M7.03994 22.5125H7.02332M7.03994 22.5125H7.02332M7.02332 22.5125H7.00671M7.02332 22.5125H7.00671M7.00671 22.5125H6.99009M7.00671 22.5125H6.99009M6.99009 22.5125H6.97347M6.99009 22.5125H6.97347M6.97347 22.5125H6.95686M6.97347 22.5125H6.95686M6.95686 22.5125H6.94024M6.95686 22.5125H6.94024M6.94024 22.5125H6.92363M6.94024 22.5125H6.92363M6.92363 22.5125H6.90701M6.92363 22.5125H6.90701M6.90701 22.5125H6.8904M6.90701 22.5125H6.8904M6.8904 22.5125H6.87378M6.8904 22.5125H6.87378M6.87378 22.5125H6.85717M6.87378 22.5125H6.85717M6.85717 22.5125H6.84055M6.85717 22.5125H6.84055M6.84055 22.5125H6.82394M6.84055 22.5125H6.82394M6.82394 22.5125H6.80732M6.82394 22.5125H6.80732M6.80732 22.5125H6.79071M6.80732 22.5125H6.79071M6.79071 22.5125H6.77409M6.79071 22.5125H6.77409M6.77409 22.5125H6.75747M6.77409 22.5125H6.75747M6.75747 22.5125H6.74086M6.75747 22.5125H6.74086M6.74086 22.5125H6.72424M6.74086 22.5125H6.72424M6.72424 22.5125H6.70763M6.72424 22.5125H6.70763M6.70763 22.5125H6.69101M6.70763 22.5125H6.69101M6.69101 22.5125H6.6744M6.69101 22.5125H6.6744M6.6744 22.5125H6.65778M6.6744 22.5125H6.65778M6.65778 22.5125H6.64117M6.65778 22.5125H6.64117M6.64117 22.5125H6.62455M6.64117 22.5125H6.62455M6.62455 22.5125H6.60793M6.62455 22.5125H6.60793M6.60793 22.5125H6.59132M6.60793 22.5125H6.59132M6.59132 22.5125H6.5747M6.59132 22.5125H6.5747M6.5747 22.5125H6.55809M6.5747 22.5125H6.55809M6.55809 22.5125H6.54147M6.55809 22.5125H6.54147M6.54147 22.5125H6.52486M6.54147 22.5125H6.52486M6.52486 22.5125H6.50824M6.52486 22.5125H6.50824M6.50824 22.5125H6.49163M6.50824 22.5125H6.49163M6.49163 22.5125H6.47501M6.49163 22.5125H6.47501M6.47501 22.5125H6.4584M6.47501 22.5125H6.4584M6.4584 22.5125H6.44178M6.4584 22.5125H6.44178M6.44178 22.5125H6.42516M6.44178 22.5125H6.42516M6.42516 22.5125H6.40855M6.42516 22.5125H6.40855M6.40855 22.5125H6.39193M6.40855 22.5125H6.39193M6.39193 22.5125H6.37532M6.39193 22.5125H6.37532M6.37532 22.5125H6.3587M6.37532 22.5125H6.3587M6.3587 22.5125H6.34209M6.3587 22.5125H6.34209M6.34209 22.5125H6.32547M6.34209 22.5125H6.32547M6.32547 22.5125H6.30885M6.32547 22.5125H6.30885M6.30885 22.5125H6.29224M6.30885 22.5125H6.29224M6.29224 22.5125H6.27562M6.29224 22.5125H6.27562M6.27562 22.5125H6.25901M6.27562 22.5125H6.25901M6.25901 22.5125H6.24239M6.25901 22.5125H6.24239M6.24239 22.5125H6.22578M6.24239 22.5125H6.22578M6.22578 22.5125H6.20916M6.22578 22.5125H6.20916M6.20916 22.5125H6.19254M6.20916 22.5125H6.19254M6.19254 22.5125H6.17593M6.19254 22.5125H6.17593M6.17593 22.5125H6.15931M6.17593 22.5125H6.15931M6.15931 22.5125H6.1427M6.15931 22.5125H6.1427M6.1427 22.5125H6.12608M6.1427 22.5125H6.12608M6.12608 22.5125H6.10947M6.12608 22.5125H6.10947M6.10947 22.5125H6.09285M6.10947 22.5125H6.09285M6.09285 22.5125H6.07623M6.09285 22.5125H6.07623M6.07623 22.5125H6.05962M6.07623 22.5125H6.05962M6.05962 22.5125H6.043M6.05962 22.5125H6.043M6.043 22.5125H6.02639M6.043 22.5125H6.02639M6.02639 22.5125H6.00977M6.02639 22.5125H6.00977M6.00977 22.5125H5.99315M6.00977 22.5125H5.99315M5.99315 22.5125H5.97654M5.99315 22.5125H5.97654M5.97654 22.5125H5.95992M5.97654 22.5125H5.95992M5.95992 22.5125H5.94331M5.95992 22.5125H5.94331M5.94331 22.5125H5.92669M5.94331 22.5125H5.92669M5.92669 22.5125H5.91008M5.92669 22.5125H5.91008M5.91008 22.5125H5.89346M5.91008 22.5125H5.89346M5.89346 22.5125H5.87684M5.89346 22.5125H5.87684M5.87684 22.5125H5.86023M5.87684 22.5125H5.86023M5.86023 22.5125H5.84361M5.86023 22.5125H5.84361M5.84361 22.5125H5.827M5.84361 22.5125H5.827M5.827 22.5125H5.81038M5.827 22.5125H5.81038M5.81038 22.5125H5.79376M5.81038 22.5125H5.79376M5.79376 22.5125H5.77715M5.79376 22.5125H5.77715M5.77715 22.5125H5.76053M5.77715 22.5125H5.76053M5.76053 22.5125H5.74392M5.76053 22.5125H5.74392M5.74392 22.5125H5.7273M5.74392 22.5125H5.7273M5.7273 22.5125H5.71068M5.7273 22.5125H5.71068M5.71068 22.5125H5.69407M5.71068 22.5125H5.69407M5.69407 22.5125H5.67745M5.69407 22.5125H5.67745M5.67745 22.5125H5.66084M5.67745 22.5125H5.66084M5.66084 22.5125H5.64422M5.66084 22.5125H5.64422M5.64422 22.5125H5.6276M5.64422 22.5125H5.6276M5.6276 22.5125H5.61099M5.6276 22.5125H5.61099M5.61099 22.5125H5.59437M5.61099 22.5125H5.59437M5.59437 22.5125H5.57776M5.59437 22.5125H5.57776M5.57776 22.5125H5.56114M5.57776 22.5125H5.56114M5.56114 22.5125H5.54452M5.56114 22.5125H5.54452M5.54452 22.5125H5.52791M5.54452 22.5125H5.52791M5.52791 22.5125H5.51129M5.52791 22.5125H5.51129M5.51129 22.5125H5.49467M5.51129 22.5125H5.49467M5.49467 22.5125H5.47806M5.49467 22.5125H5.47806M5.47806 22.5125H5.46144M5.47806 22.5125H5.46144M5.46144 22.5125H5.44483M5.46144 22.5125H5.44483M5.44483 22.5125H5.42821M5.44483 22.5125H5.42821M5.42821 22.5125H5.41159M5.42821 22.5125H5.41159M5.41159 22.5125H5.39498M5.41159 22.5125H5.39498M5.39498 22.5125H5.37836M5.39498 22.5125H5.37836M5.37836 22.5125H5.36175M5.37836 22.5125H5.36175M5.36175 22.5125H5.34513M5.36175 22.5125H5.34513M5.34513 22.5125H5.32851M5.34513 22.5125H5.32851M5.32851 22.5125H5.3119M5.32851 22.5125H5.3119M5.3119 22.5125H5.29528M5.3119 22.5125H5.29528M5.29528 22.5125H5.27866M5.29528 22.5125H5.27866M5.27866 22.5125H5.26205M5.27866 22.5125H5.26205M5.26205 22.5125H5.24543M5.26205 22.5125H5.24543M5.24543 22.5125H5.22882M5.24543 22.5125H5.22882M5.22882 22.5125H5.2122M5.22882 22.5125H5.2122M5.2122 22.5125H5.19558M5.2122 22.5125H5.19558M5.19558 22.5125H5.17897M5.19558 22.5125H5.17897M5.17897 22.5125H5.16235M5.17897 22.5125H5.16235M5.16235 22.5125H5.14573M5.16235 22.5125H5.14573M5.14573 22.5125H5.12912M5.14573 22.5125H5.12912M5.12912 22.5125H5.1125M5.12912 22.5125H5.1125M5.1125 22.5125H5.09588M5.1125 22.5125H5.09588M5.09588 22.5125H5.07927M5.09588 22.5125H5.07927M5.07927 22.5125H5.06265M5.07927 22.5125H5.06265M5.06265 22.5125H5.04604M5.06265 22.5125H5.04604M5.04604 22.5125H5.02942M5.04604 22.5125H5.02942M5.02942 22.5125H5.0128M5.02942 22.5125H5.0128M5.0128 22.5125H4.99619M5.0128 22.5125H4.99619M4.99619 22.5125H4.97957M4.99619 22.5125H4.97957M4.97957 22.5125H4.96295M4.97957 22.5125H4.96295M4.96295 22.5125H4.94634M4.96295 22.5125H4.94634M4.94634 22.5125H4.92972M4.94634 22.5125H4.92972M4.92972 22.5125H4.9131M4.92972 22.5125H4.9131M4.9131 22.5125H4.89649M4.9131 22.5125H4.89649M4.89649 22.5125H4.87987M4.89649 22.5125H4.87987M4.87987 22.5125H4.86325M4.87987 22.5125H4.86325M4.86325 22.5125H4.84664M4.86325 22.5125H4.84664M4.84664 22.5125H4.83002M4.84664 22.5125H4.83002M4.83002 22.5125H4.8134M4.83002 22.5125H4.8134M4.8134 22.5125H4.79679M4.8134 22.5125H4.79679M4.79679 22.5125H4.78017M4.79679 22.5125H4.78017M4.78017 22.5125H4.76355M4.78017 22.5125H4.76355M4.76355 22.5125H4.74694M4.76355 22.5125H4.74694M4.74694 22.5125H4.73032M4.74694 22.5125H4.73032M4.73032 22.5125H4.7137M4.73032 22.5125H4.7137M4.7137 22.5125H4.69709M4.7137 22.5125H4.69709M4.69709 22.5125H4.68047M4.69709 22.5125H4.68047M4.68047 22.5125H4.66385M4.68047 22.5125H4.66385M4.66385 22.5125H4.64724M4.66385 22.5125H4.64724M4.64724 22.5125H4.63062M4.64724 22.5125H4.63062M4.63062 22.5125H4.614M4.63062 22.5125H4.614M4.614 22.5125H4.59739M4.614 22.5125H4.59739M4.59739 22.5125H4.58077M4.59739 22.5125H4.58077M4.58077 22.5125H4.56415M4.58077 22.5125H4.56415M4.56415 22.5125H4.54754M4.56415 22.5125H4.54754M4.54754 22.5125H4.53092M4.54754 22.5125H4.53092M4.53092 22.5125H4.5143M4.53092 22.5125H4.5143M4.5143 22.5125H4.49769M4.5143 22.5125H4.49769M4.49769 22.5125H4.48107M4.49769 22.5125H4.48107M4.48107 22.5125H4.46445M4.48107 22.5125H4.46445M4.46445 22.5125H4.44784M4.46445 22.5125H4.44784M4.44784 22.5125H4.43122M4.44784 22.5125H4.43122M4.43122 22.5125H4.4146M4.43122 22.5125H4.4146M4.4146 22.5125H4.39799M4.4146 22.5125H4.39799M4.39799 22.5125H4.38137M4.39799 22.5125H4.38137M4.38137 22.5125H4.36475M4.38137 22.5125H4.36475M4.36475 22.5125H4.34813M4.36475 22.5125H4.34813M4.34813 22.5125H4.33152M4.34813 22.5125H4.33152M4.33152 22.5125H4.3149M4.33152 22.5125H4.3149M4.3149 22.5125H4.29828M4.3149 22.5125H4.29828M4.29828 22.5125H4.28167M4.29828 22.5125H4.28167M4.28167 22.5125H4.26505M4.28167 22.5125H4.26505M4.26505 22.5125H4.24843M4.26505 22.5125H4.24843M4.24843 22.5125H4.23182M4.24843 22.5125H4.23182M4.23182 22.5125H4.2152M4.23182 22.5125H4.2152M4.2152 22.5125H4.19858M4.2152 22.5125H4.19858M4.19858 22.5125H4.18196M4.19858 22.5125H4.18196M4.18196 22.5125H4.16535M4.18196 22.5125H4.16535M4.16535 22.5125H4.14873M4.16535 22.5125H4.14873M4.14873 22.5125H4.13211M4.14873 22.5125H4.13211M4.13211 22.5125H4.1155M4.13211 22.5125H4.1155M4.1155 22.5125H4.09888M4.1155 22.5125H4.09888M4.09888 22.5125H4.08226M4.09888 22.5125H4.08226M4.08226 22.5125H4.06564M4.08226 22.5125H4.06564M4.06564 22.5125H4.04903M4.06564 22.5125H4.04903M4.04903 22.5125H4.03241M4.04903 22.5125H4.03241M4.03241 22.5125H4.01579M4.03241 22.5125H4.01579M4.01579 22.5125H3.99918M4.01579 22.5125H3.99918M3.99918 22.5125H3.98256M3.99918 22.5125H3.98256M3.98256 22.5125H3.96594M3.98256 22.5125H3.96594M3.96594 22.5125H3.94932M3.96594 22.5125H3.94932M3.94932 22.5125H3.93271M3.94932 22.5125H3.93271M3.93271 22.5125H3.91609M3.93271 22.5125H3.91609M3.91609 22.5125H3.89947M3.91609 22.5125H3.89947M3.89947 22.5125H3.88286M3.89947 22.5125H3.88286M3.88286 22.5125H3.86624M3.88286 22.5125H3.86624M3.86624 22.5125H3.84962M3.86624 22.5125H3.84962M3.84962 22.5125H3.833M3.84962 22.5125H3.833M3.833 22.5125H3.81639M3.833 22.5125H3.81639M3.81639 22.5125H3.79977M3.81639 22.5125H3.79977M3.79977 22.5125H3.78315M3.79977 22.5125H3.78315M3.78315 22.5125H3.76653M3.78315 22.5125H3.76653M3.76653 22.5125H3.74992M3.76653 22.5125H3.74992M3.74992 22.5125H3.7333M3.74992 22.5125H3.7333M3.7333 22.5125H3.71668M3.7333 22.5125H3.71668M3.71668 22.5125H3.70006M3.71668 22.5125H3.70006M3.70006 22.5125H3.68345M3.70006 22.5125H3.68345M3.68345 22.5125H3.66683M3.68345 22.5125H3.66683M3.66683 22.5125H3.65021M3.66683 22.5125H3.65021M3.65021 22.5125H3.63359M3.65021 22.5125H3.63359M3.63359 22.5125H3.61698M3.63359 22.5125H3.61698M3.61698 22.5125H3.60036M3.61698 22.5125H3.60036M3.60036 22.5125H3.58374M3.60036 22.5125H3.58374M3.58374 22.5125H3.56712M3.58374 22.5125H3.56712M3.56712 22.5125H3.55051M3.56712 22.5125H3.55051M3.55051 22.5125H3.53389M3.55051 22.5125H3.53389M3.53389 22.5125H3.51727M3.53389 22.5125H3.51727M3.51727 22.5125H3.50065M3.51727 22.5125H3.50065M3.50065 22.5125H3.48404M3.50065 22.5125H3.48404M3.48404 22.5125H3.46742M3.48404 22.5125H3.46742M3.46742 22.5125H3.4508M3.46742 22.5125H3.4508M3.4508 22.5125H3.43418M3.4508 22.5125H3.43418M3.43418 22.5125H3.41757M3.43418 22.5125H3.41757M3.41757 22.5125H3.40095M3.41757 22.5125H3.40095M3.40095 22.5125H3.38433M3.40095 22.5125H3.38433M3.38433 22.5125H3.36771M3.38433 22.5125H3.36771M3.36771 22.5125H3.35109M3.36771 22.5125H3.35109M3.35109 22.5125H3.33448M3.35109 22.5125H3.33448M3.33448 22.5125H3.31786M3.33448 22.5125H3.31786M3.31786 22.5125H3.30124M3.31786 22.5125H3.30124M3.30124 22.5125H3.28462M3.30124 22.5125H3.28462M3.28462 22.5125H3.26801M3.28462 22.5125H3.26801M3.26801 22.5125H3.25139M3.26801 22.5125H3.25139M3.25139 22.5125H3.23477M3.25139 22.5125H3.23477M3.23477 22.5125H3.21815M3.23477 22.5125H3.21815M3.21815 22.5125H3.20153M3.21815 22.5125H3.20153M3.20153 22.5125H3.18492M3.20153 22.5125H3.18492M3.18492 22.5125H3.1683M3.18492 22.5125H3.1683M3.1683 22.5125H3.15168M3.1683 22.5125H3.15168M3.15168 22.5125H3.13506M3.15168 22.5125H3.13506M3.13506 22.5125H3.11844M3.13506 22.5125H3.11844M3.11844 22.5125H3.10183M3.11844 22.5125H3.10183M3.10183 22.5125H3.08521M3.10183 22.5125H3.08521M3.08521 22.5125H3.06859M3.08521 22.5125H3.06859M3.06859 22.5125H3.05197M3.06859 22.5125H3.05197M3.05197 22.5125H3.03535M3.05197 22.5125H3.03535M3.03535 22.5125H3.01874M3.03535 22.5125H3.01874M3.01874 22.5125H3.00212M3.01874 22.5125H3.00212M3.00212 22.5125H2.9855M3.00212 22.5125H2.9855M2.9855 22.5125H2.96888M2.9855 22.5125H2.96888M2.96888 22.5125H2.95226M2.96888 22.5125H2.95226M2.95226 22.5125H2.93565M2.95226 22.5125H2.93565M2.93565 22.5125H2.91903M2.93565 22.5125H2.91903M2.91903 22.5125H2.90241M2.91903 22.5125H2.90241M2.90241 22.5125H2.88579M2.90241 22.5125H2.88579M2.88579 22.5125H2.86917M2.88579 22.5125H2.86917M2.86917 22.5125H2.85256M2.86917 22.5125H2.85256M2.85256 22.5125H2.83594M2.85256 22.5125H2.83594M2.83594 22.5125H2.81932M2.83594 22.5125H2.81932M2.81932 22.5125H2.8027M2.81932 22.5125H2.8027M2.8027 22.5125H2.78608M2.8027 22.5125H2.78608M2.78608 22.5125H2.76946M2.78608 22.5125H2.76946M2.76946 22.5125H2.75285M2.76946 22.5125H2.75285M2.75285 22.5125H2.73623M2.75285 22.5125H2.73623M2.73623 22.5125H2.71961M2.73623 22.5125H2.71961M2.71961 22.5125H2.70299M2.71961 22.5125H2.70299M2.70299 22.5125H2.68637M2.70299 22.5125H2.68637M2.68637 22.5125H2.66975M2.68637 22.5125H2.66975M2.66975 22.5125H2.65314M2.66975 22.5125H2.65314M2.65314 22.5125H2.63652M2.65314 22.5125H2.63652M2.63652 22.5125H2.6199M2.63652 22.5125H2.6199M2.6199 22.5125H2.60328M2.6199 22.5125H2.60328M2.60328 22.5125H2.58666M2.60328 22.5125H2.58666M2.58666 22.5125H2.57004M2.58666 22.5125H2.57004M2.57004 22.5125H2.55343M2.57004 22.5125H2.55343M2.55343 22.5125H2.53681M2.55343 22.5125H2.53681M2.53681 22.5125H2.52019M2.53681 22.5125H2.52019M2.52019 22.5125H2.50357M2.52019 22.5125H2.50357M2.50357 22.5125H2.48695M2.50357 22.5125H2.48695M2.48695 22.5125H2.47033M2.48695 22.5125H2.47033M2.47033 22.5125H2.45371M2.47033 22.5125H2.45371M2.45371 22.5125H2.4371M2.45371 22.5125H2.4371M2.4371 22.5125H2.42048M2.4371 22.5125H2.42048M2.42048 22.5125H2.40386M2.42048 22.5125H2.40386M2.40386 22.5125H2.38724M2.40386 22.5125H2.38724M2.38724 22.5125H2.37062M2.38724 22.5125H2.37062M2.37062 22.5125H2.354M2.37062 22.5125H2.354M2.354 22.5125H2.33738M2.354 22.5125H2.33738M2.33738 22.5125H2.32076M2.33738 22.5125H2.32076M2.32076 22.5125H2.30415M2.32076 22.5125H2.30415M2.30415 22.5125H2.28753M2.30415 22.5125H2.28753M2.28753 22.5125H2.27091M2.28753 22.5125H2.27091M2.27091 22.5125H2.25429M2.27091 22.5125H2.25429M2.25429 22.5125H2.23767M2.25429 22.5125H2.23767M2.23767 22.5125H2.22105M2.23767 22.5125H2.22105M2.22105 22.5125H2.20443M2.22105 22.5125H2.20443M2.20443 22.5125H2.18781M2.20443 22.5125H2.18781M2.18781 22.5125H2.1712M2.18781 22.5125H2.1712M2.1712 22.5125H2.15458M2.1712 22.5125H2.15458M2.15458 22.5125H2.13796M2.15458 22.5125H2.13796M2.13796 22.5125H2.12134M2.13796 22.5125H2.12134M2.12134 22.5125H2.10472M2.12134 22.5125H2.10472M2.10472 22.5125H2.0881M2.10472 22.5125H2.0881M2.0881 22.5125H2.07148M2.0881 22.5125H2.07148M2.07148 22.5125H2.05486M2.07148 22.5125H2.05486M2.05486 22.5125H2.03824M2.05486 22.5125H2.03824M2.03824 22.5125H2.02162M2.03824 22.5125H2.02162M2.02162 22.5125H2.00501M2.02162 22.5125H2.00501M2.00501 22.5125H1.98839M2.00501 22.5125H1.98839M1.98839 22.5125H1.97177M1.98839 22.5125H1.97177M1.97177 22.5125H1.95515M1.97177 22.5125H1.95515M1.95515 22.5125H1.93853M1.95515 22.5125H1.93853M1.93853 22.5125H1.92191M1.93853 22.5125H1.92191M1.92191 22.5125H1.90529M1.92191 22.5125H1.90529M1.90529 22.5125H1.88867M1.90529 22.5125H1.88867M1.88867 22.5125C1.84264 22.5125 1.80404 22.5111 1.77204 22.5088M1.88867 22.5125L1.77204 22.5088M1.77204 22.5088C1.76992 22.4742 1.76875 22.432 1.76944 22.381L1.77204 22.5088Z" stroke="black" stroke-width="2.1"/>
<path d="M10.5098 1.49778L10.5097 1.49778C8.12325 1.46184 6.18605 3.35138 6.14788 5.85714L10.5098 1.49778ZM10.5098 1.49778C12.8034 1.53209 14.6965 3.49257 14.6642 5.94357M10.5098 1.49778L14.6642 5.94357M14.6642 5.94357C14.6322 8.35418 12.6738 10.2539 10.2857 10.211M14.6642 5.94357L10.2857 10.211M10.2857 10.211C8.03616 10.1697 6.11302 8.17492 6.14788 5.85727L10.2857 10.211Z" stroke="black" stroke-width="2.1"/>
<path d="M19.8819 14.1664C20.1762 14.0716 20.4766 14.0038 20.7845 13.9626L20.7848 13.9625C23.934 13.5403 26.7378 15.5255 27.4201 18.7113L27.4201 18.7113C27.4901 19.0386 27.5273 19.3919 27.5436 19.7648L19.8819 14.1664ZM19.8819 14.1664C21.3033 15.7993 22.2321 17.7035 22.7042 19.8395C22.9026 19.8393 23.1005 19.8396 23.2968 19.8399C23.4453 19.8401 23.5929 19.8403 23.7392 19.8403C24.1527 19.8403 24.566 19.8404 24.9791 19.8405C25.8047 19.8407 26.6297 19.8409 27.455 19.8403L19.8819 14.1664ZM27.5436 19.7648C27.5447 19.7923 27.545 19.8164 27.5447 19.8375C27.5195 19.8392 27.4898 19.8403 27.4554 19.8403L27.5436 19.7648Z" stroke="black" stroke-width="2.1"/>
<path d="M21.6388 4.74361L21.6384 4.74361C20.0525 4.74017 18.7331 6.05135 18.7294 7.70496L21.6388 4.74361ZM21.6388 4.74361C23.2182 4.74647 24.533 6.06259 24.5295 7.72305M21.6388 4.74361L24.5295 7.72305M24.5295 7.72305C24.526 9.37662 23.2059 10.6884 21.6201 10.6856M24.5295 7.72305L21.6201 10.6856M21.6201 10.6856C20.0429 10.6827 18.7267 9.36558 18.7294 7.70533L21.6201 10.6856Z" stroke="black" stroke-width="2.1"/>
</svg>
